<?xml version="1.0" standalone="no"?>
<!DOCTYPE svg PUBLIC "-//W3C//DTD SVG 1.1//EN" "http://www.w3.org/Graphics/SVG/1.1/DTD/svg11.dtd" >
<svg>
<metadata>
Created by FontForge 20090622 at Sat Jan 14 01:14:41 2017
 By deploy user
Copyright 2011 by Timo Gaessner, 123buero. All rights reserved.
</metadata>
<defs>
<font id="MaisonNeue-MonoItalic" horiz-adv-x="650" >
  <font-face 
    font-family="Maison Neue"
    font-weight="400"
    font-style="italic"
    font-stretch="normal"
    units-per-em="1000"
    panose-1="2 0 0 0 0 0 0 0 0 0"
    ascent="775"
    descent="-225"
    x-height="530"
    cap-height="700"
    bbox="-26 -300 775 971"
    underline-thickness="50"
    underline-position="-50"
    slope="-10"
    unicode-range="U+000D-U+F8FF"
  />
<missing-glyph 
d="M32 0v423q0 117 86 204.5t206 87.5q121 0 207.5 -87.5t86.5 -204.5v-423h-28l-65 65l-68 -65l-63 65l-71 -65l-69 65l-63 -65l-67 65l-66 -65h-26zM392 305l63 63l64 -63l14 14l-64 63l64 64l-14 14l-64 -64l-63 64l-14 -14l63 -64l-63 -63zM132 305l63 63l64 -63l14 14
l-64 63l64 64l-14 14l-64 -64l-63 64l-14 -14l63 -64l-63 -63z" />
    <glyph glyph-name=".notdef" 
d="M32 0v423q0 117 86 204.5t206 87.5q121 0 207.5 -87.5t86.5 -204.5v-423h-28l-65 65l-68 -65l-63 65l-71 -65l-69 65l-63 -65l-67 65l-66 -65h-26zM392 305l63 63l64 -63l14 14l-64 63l64 64l-14 14l-64 -64l-63 64l-14 -14l63 -64l-63 -63zM132 305l63 63l64 -63l14 14
l-64 63l64 64l-14 14l-64 -64l-63 64l-14 -14l63 -64l-63 -63z" />
    <glyph glyph-name=".null" horiz-adv-x="600" 
 />
    <glyph glyph-name=".null" horiz-adv-x="600" 
 />
    <glyph glyph-name="nonmarkingreturn" horiz-adv-x="333" 
 />
    <glyph glyph-name="CR" unicode="&#xd;" horiz-adv-x="600" 
 />
    <glyph glyph-name="space" unicode=" " horiz-adv-x="600" 
 />
    <glyph glyph-name="exclam" unicode="!" 
d="M264 208l87 492h82l-87 -492h-82zM216 0l20 115h116l-20 -115h-116z" />
    <glyph glyph-name="quotedbl" unicode="&#x22;" 
d="M340 477l39 223h62l-39 -223h-62zM209 477l39 223h62l-39 -223h-62z" />
    <glyph glyph-name="numbersign" unicode="#" 
d="M129 155l34 145h-128l10 59h133l34 136h-111l11 59h114l35 146h64l-35 -146h134l35 146h65l-36 -146h126l-10 -59h-130l-34 -136h108l-11 -59h-111l-35 -145h-64l34 145h-133l-35 -145h-64zM243 359h133l33 136h-133z" />
    <glyph glyph-name="dollar" unicode="$" 
d="M40 250l88 10q0 -168 136 -192l49 273q-115 39 -158.5 77.5t-43.5 103.5q0 80 69.5 136.5t184.5 56.5h14l11 60h45l-12 -65q83 -14 134 -66t53 -131l-85 -10q-7 110 -115 130l-41 -225q125 -42 169.5 -85.5t44.5 -110.5q0 -92 -74 -159.5t-196 -67.5h-20l-15 -83h-43
l15 88q-87 14 -141 66.5t-65 138.5q-4 34 -4 55zM498 209q0 36 -27.5 63t-116.5 56l-47 -264q82 0 136.5 40t54.5 105zM197 527q0 -33 23.5 -54t107.5 -50l38 215q-78 0 -123.5 -31.5t-45.5 -79.5z" />
    <glyph glyph-name="percent" unicode="%" 
d="M75 630q0 109 56 171t133 62q66 0 108.5 -48t42.5 -123q0 -107 -55.5 -170.5t-133.5 -63.5q-67 0 -109 47.5t-42 124.5zM143 636q0 -50 21 -82.5t61 -32.5q53 0 87.5 45.5t34.5 122.5q0 49 -21.5 80t-62.5 31q-53 0 -86.5 -44t-33.5 -120zM239 11q0 109 56 171t133 62
q66 0 108.5 -48t42.5 -123q0 -107 -55.5 -170.5t-132.5 -63.5q-68 0 -110 47.5t-42 124.5zM307 17q0 -50 21 -82.5t61 -32.5q53 0 87.5 45.5t34.5 122.5q0 49 -21.5 80t-62.5 31q-53 0 -86.5 -44t-33.5 -120zM156 212l-34 60l372 216l34 -60z" />
    <glyph glyph-name="ampersand" unicode="&#x26;" 
d="M510 58l-38 46q-22 -51 -82 -85t-135 -34q-102 0 -161 50.5t-59 138.5q0 67 40.5 133.5t134.5 115.5q-47 61 -47 120q0 72 51.5 122t132.5 50q84 0 128.5 -48.5t42.5 -125.5l-77 -7q-6 108 -92 108q-52 0 -79.5 -30t-27.5 -68q0 -43 59 -114l139 -168l19 114h79l-35 -189
l65 -79zM419 167l-166 200q-138 -68 -138 -181q0 -126 145 -126q49 0 96 27t63 80z" />
    <glyph glyph-name="quotesingle" unicode="'" 
d="M274 477l39 223h62l-39 -223h-62z" />
    <glyph glyph-name="parenleft" unicode="(" 
d="M344 -142l-67 -39q-118 211 -118 410q0 162 74.5 305.5t213.5 252.5l50 -53q-253 -203 -254 -492q-1 -113 26 -203t75 -181z" />
    <glyph glyph-name="parenright" unicode=")" 
d="M202 -181l-49 56q252 203 253 489q1 198 -102 386l68 37q117 -209 118 -415q0 -162 -74.5 -305t-213.5 -248z" />
    <glyph glyph-name="asterisk" unicode="*" 
d="M196 354l-43 47l104 101l-115 79l38 51l110 -76l25 144h65l-25 -148l125 68l28 -55l-138 -74l79 -119l-55 -39l-84 137z" />
    <glyph glyph-name="plus" unicode="+" 
d="M290 120v227h-199v66h199v202h70v-202h199v-66h-199v-227h-70z" />
    <glyph glyph-name="comma" unicode="," 
d="M244 -116l10 55q49 9 59 61h-49l20 115h122l-20 -110q-19 -111 -142 -121z" />
    <glyph glyph-name="hyphen" unicode="-" 
d="M159 308l13 70h319l-13 -70h-319z" />
    <glyph glyph-name="period" unicode="." 
d="M256 0l21 116h117l-21 -116h-117z" />
    <glyph glyph-name="slash" unicode="/" 
d="M117 -14l360 760l66 -28l-360 -758z" />
    <glyph glyph-name="zero" unicode="0" 
d="M279 -15q-100 0 -161.5 68.5t-61.5 206.5q0 115 35.5 217t108.5 170t170 68q98 0 161 -71.5t63 -203.5q0 -120 -35.5 -222t-108.5 -167.5t-171 -65.5zM286 63q53 0 97 35t71 90.5t42 120.5t15 128l-369 -237q11 -67 48.5 -102t95.5 -35zM363 639q-68 0 -120.5 -60.5
t-77.5 -142t-27 -164.5l366 237q-13 63 -50 96.5t-91 33.5z" />
    <glyph glyph-name="one" unicode="1" 
d="M34 0l12 75h197l93 521l-168 -92l17 99l178 97h72l-110 -625h201l-13 -75h-479z" />
    <glyph glyph-name="two" unicode="2" 
d="M58 0l10 63q17 107 64 164t162 106q4 2 26 11t29 12.5t28 13t29.5 15l26 17t25.5 20l20 21.5t17.5 25t9.5 27.5t4 32.5q0 51 -39.5 81.5t-92.5 30.5q-66 0 -109 -40t-59 -115l-79 19q17 99 85.5 155t160.5 56q101 0 158.5 -54t57.5 -133q0 -50 -17.5 -88.5t-56.5 -69
t-77.5 -50.5t-105.5 -49q-95 -41 -129.5 -77.5t-45.5 -109.5h362l-16 -84h-448z" />
    <glyph glyph-name="three" unicode="3" 
d="M67 238l83 12q7 -190 162 -190q79 0 121.5 45.5t42.5 115.5q0 57 -37.5 87.5t-99.5 30.5h-37l13 72h45q62 0 102 33.5t40 95.5q0 44 -32 72t-89 28q-60 0 -95.5 -34.5t-49.5 -86.5l-77 23q13 69 72 121t152 52q88 0 143.5 -47t56.5 -119q0 -63 -35 -108.5t-93 -64.5v-3
q43 -15 73 -56t30 -102q0 -98 -65 -164t-182 -66q-115 0 -178 68t-66 185z" />
    <glyph glyph-name="four" unicode="4" 
d="M21 163l13 74l395 463h127l-84 -463h87l-13 -74h-86l-28 -163h-82l29 163h-358zM122 237h268l75 399h-2z" />
    <glyph glyph-name="five" unicode="5" 
d="M58 195l80 19q11 -69 50 -111.5t112 -42.5q83 0 133 57t50 140q0 64 -39.5 103t-106.5 39q-91 0 -160 -69l-65 42l104 328h344l-13 -76h-279l-66 -211h2q63 53 147 53q92 0 152.5 -57.5t60.5 -148.5q0 -124 -73.5 -199.5t-191.5 -75.5q-101 0 -165 59t-76 151z" />
    <glyph glyph-name="six" unicode="6" 
d="M322 62q77 0 126.5 52.5t49.5 136.5q0 58 -38 101t-113 43q-79 0 -130.5 -50.5t-51.5 -119.5q0 -76 44.5 -119.5t112.5 -43.5zM169 382h1l2 -1q24 28 73.5 54t111.5 26q103 0 162 -61.5t59 -148.5q0 -121 -72.5 -193.5t-184.5 -72.5q-107 0 -177.5 74.5t-70.5 201.5
q0 191 93.5 322.5t226.5 131.5q99 0 150.5 -61t53.5 -142l-79 -11q-12 139 -128 139q-77 0 -137.5 -69.5t-83.5 -188.5z" />
    <glyph glyph-name="seven" unicode="7" 
d="M80 0l439 620v3h-357l14 77h449l-13 -74l-437 -626h-95z" />
    <glyph glyph-name="eight" unicode="8" 
d="M348 415q63 0 102.5 34t39.5 89q0 48 -31 77.5t-94 29.5q-61 0 -100.5 -35t-39.5 -85q0 -46 32 -78t91 -32zM299 65q76 0 122.5 41t46.5 108q0 60 -38.5 94.5t-109.5 34.5q-79 0 -127 -41.5t-48 -108.5q0 -58 37.5 -93t116.5 -35zM288 -15q-104 0 -165.5 56.5
t-61.5 142.5q0 84 49.5 137.5t116.5 67.5v2q-80 38 -80 137q0 74 60.5 130.5t161.5 56.5q95 0 147.5 -52t52.5 -122q0 -63 -32.5 -105.5t-83.5 -58.5v-2q42 -18 72 -63.5t30 -102.5q0 -102 -75 -163t-192 -61z" />
    <glyph glyph-name="nine" unicode="9" 
d="M72 177l80 17q6 -60 38 -97t95 -37q81 0 134.5 75t66.5 192h-3q-19 -31 -68.5 -58t-117.5 -27q-85 0 -145 56.5t-60 160.5q0 110 74.5 183t177.5 73q104 0 168.5 -76t64.5 -209q0 -202 -82.5 -323.5t-213.5 -121.5q-90 0 -147 52t-62 140zM310 314q77 0 127 46.5
t50 115.5q0 73 -40 118.5t-107 45.5q-78 0 -123.5 -53.5t-45.5 -125.5q0 -64 38.5 -105.5t100.5 -41.5z" />
    <glyph glyph-name="colon" unicode=":" 
d="M226 0l21 116h117l-21 -116h-117zM288 415l20 115h116l-20 -115h-116z" />
    <glyph glyph-name="semicolon" unicode=";" 
d="M292 415l21 115h116l-20 -115h-117zM210 -116l10 55q49 9 59 61h-49l20 115h122l-20 -110q-19 -111 -142 -121z" />
    <glyph glyph-name="less" unicode="&#x3c;" 
d="M111 317v70l391 233l36 -59l-350 -209l350 -211l-37 -59z" />
    <glyph glyph-name="equal" unicode="=" 
d="M93 250v69h463v-69h-463zM93 418v69h463v-69h-463z" />
    <glyph glyph-name="greater" unicode="&#x3e;" 
d="M488 387v-70l-390 -235l-37 59l350 211l-350 209l36 59z" />
    <glyph glyph-name="question" unicode="?" 
d="M198 190l11 56q8 44 38 77t65.5 52.5l70 39t57.5 50t23 73.5q0 41 -33 72.5t-95 31.5q-64 0 -102 -38t-50 -105l-75 16q12 89 73 144.5t155 55.5q85 0 143 -45.5t62 -115.5q3 -36 -4 -63q-11 -51 -49.5 -89.5t-79 -57.5t-76.5 -45t-42 -56l-12 -53h-80zM151 0l21 116h117
l-21 -116h-117z" />
    <glyph glyph-name="at" unicode="@" 
d="M431 86l23 -45q-36 -26 -86 -41t-82 -15q-59 0 -102.5 23.5t-68 65.5t-36.5 93.5t-12 113.5q0 109 46 209.5t123 162.5t162 62q56 0 97.5 -22.5t64.5 -60.5t33.5 -81.5t10.5 -92.5q0 -138 -38 -221.5t-107 -83.5q-24 0 -41 14.5t-24 35.5h-2q-29 -50 -92 -50
q-46 0 -74 38.5t-28 108.5q0 85 44.5 156.5t102.5 71.5q23 0 39.5 -13t21.5 -29l2 -1l6 33h60l-43 -252q-4 -28 6 -45t28 -17q38 0 61 72.5t23 181.5q0 205 -154 205q-72 0 -136 -57.5t-100.5 -146t-36.5 -178.5q0 -108 41 -176t119 -68t149 49zM375 281l18 107q6 38 -7 63
t-36 25q-39 0 -66 -55t-27 -121q0 -92 52 -92q53 0 66 73z" />
    <glyph glyph-name="A" unicode="A" 
d="M496 0l-26 141h-318l-74 -141h-89l375 700h87l129 -700h-84zM388 590l-201 -381h271l-68 381h-2z" />
    <glyph glyph-name="B" unicode="B" 
d="M55 0l123 700h222q95 0 145 -46t50 -118q0 -62 -35.5 -104t-87.5 -63v-2q94 -43 94 -147q0 -95 -68.5 -157.5t-201.5 -62.5h-241zM210 404h142q79 0 119 35t40 93q0 43 -32 68.5t-92 25.5h-138zM152 76h156q76 0 125.5 41.5t49.5 105.5q0 52 -36 81t-106 29h-144z" />
    <glyph glyph-name="C" unicode="C" 
d="M494 254l86 -23q-22 -115 -89 -180.5t-171 -65.5q-108 0 -176 83t-68 215q0 192 92 312t218 120q100 0 163 -68t62 -177l-87 -7q-2 76 -35.5 125t-105.5 49q-90 0 -154.5 -101.5t-64.5 -240.5q0 -102 44.5 -165.5t115.5 -63.5q66 0 109 51.5t61 136.5z" />
    <glyph glyph-name="D" unicode="D" 
d="M141 77h99q126 0 202.5 91t76.5 246q0 104 -48.5 157.5t-136.5 53.5h-96zM44 0l123 700h182q114 0 187 -76t73 -208q0 -105 -29.5 -186t-80.5 -130.5t-116 -74.5t-140 -25h-199z" />
    <glyph glyph-name="E" unicode="E" 
d="M81 0l123 700h412l-13 -75h-328l-40 -228h300l-12 -71h-301l-44 -249h329l-14 -77h-412z" />
    <glyph glyph-name="F" unicode="F" 
d="M97 0l123 700h403l-13 -76h-319l-45 -253h291l-12 -71h-292l-53 -300h-83z" />
    <glyph glyph-name="G" unicode="G" 
d="M377 715q97 0 159 -66.5t63 -172.5l-87 -8q-10 168 -141 168q-91 0 -155 -99t-64 -242q0 -104 43.5 -166t115.5 -62q75 0 124 54.5t63 140.5h-172l14 77h258l-10 -66q-19 -130 -94 -209t-186 -79t-178 83.5t-67 220.5q0 190 94 308t220 118z" />
    <glyph glyph-name="H" unicode="H" 
d="M27 0l123 700h84l-53 -301h304l53 301h84l-123 -700h-84l57 326h-303l-58 -326h-84z" />
    <glyph glyph-name="I" unicode="I" 
d="M163 625l13 75h420l-13 -75h-168l-97 -550h168l-13 -75h-420l13 75h167l97 550h-167z" />
    <glyph glyph-name="J" unicode="J" 
d="M217 625l14 75h350l-84 -472q-43 -243 -239 -243q-92 0 -140.5 56.5t-46.5 149.5l82 6q3 -71 25.5 -102.5t84.5 -31.5t99 42t49 110l72 410h-266z" />
    <glyph glyph-name="K" unicode="K" 
d="M56 0l123 700h83l-59 -337h2l338 337h109l-316 -312l216 -388h-96l-182 334h-2l-90 -94l-43 -240h-83z" />
    <glyph glyph-name="L" unicode="L" 
d="M103 0l123 700h84l-109 -626h334l-13 -74h-419z" />
    <glyph glyph-name="M" unicode="M" 
d="M27 0l123 700h111l55 -387h2l190 387h116l-123 -700h-74l104 595h-2l-228 -459h-26l-66 459h-2l-106 -595h-74z" />
    <glyph glyph-name="N" unicode="N" 
d="M37 0l123 700h90l182 -571h2l100 571h79l-123 -700h-90l-181 571h-2l-100 -571h-80z" />
    <glyph glyph-name="O" unicode="O" 
d="M294 66q91 0 155.5 96.5t64.5 244.5q0 106 -40.5 168t-113.5 62q-92 0 -158 -98t-66 -246q0 -106 41 -166.5t117 -60.5zM293 -15q-112 0 -178.5 82t-66.5 221q0 100 27.5 183t73 135t101 80.5t113.5 28.5q108 0 174 -83.5t66 -219.5q0 -100 -27.5 -183t-72.5 -135
t-99.5 -80.5t-110.5 -28.5z" />
    <glyph glyph-name="P" unicode="P" 
d="M64 0l123 700h235q95 0 151 -50t56 -131q0 -116 -77.5 -182.5t-201.5 -66.5h-155l-48 -270h-83zM208 346h153q77 0 129.5 44t52.5 127q0 51 -34.5 79.5t-99.5 28.5h-151z" />
    <glyph glyph-name="Q" unicode="Q" 
d="M293 -15q-112 0 -178.5 82t-66.5 221q0 100 27.5 183t73 135t101 80.5t113.5 28.5q108 0 174 -83.5t66 -219.5q0 -176 -87 -299l66 -78l-51 -43l-59 70q-82 -77 -179 -77zM294 66q69 0 125 58l-154 184l52 43l143 -171q54 92 54 227q0 106 -40.5 168t-113.5 62
q-92 0 -158 -98t-66 -246q0 -106 41 -166.5t117 -60.5z" />
    <glyph glyph-name="R" unicode="R" 
d="M53 0l123 700h218q96 0 151.5 -48t55.5 -133q0 -94 -57 -155t-156 -79l109 -285h-90l-104 279h-118l-49 -279h-83zM199 353h126q85 0 137 43.5t52 120.5q0 53 -35 80.5t-98 27.5h-134z" />
    <glyph glyph-name="S" unicode="S" 
d="M60 250l88 10q2 -96 41 -146t127 -50q67 0 115 42t48 103q0 37 -28.5 65.5t-114.5 60.5q-115 43 -160.5 82.5t-45.5 106.5q0 77 63.5 134t169.5 57q97 0 162 -55t67 -147l-86 -10q-4 60 -40 97.5t-106 37.5q-64 0 -103.5 -33t-39.5 -79q0 -35 29 -57.5t136 -64.5
q101 -40 142 -83t41 -109q0 -95 -70 -161t-183 -66q-119 0 -185 68.5t-67 196.5z" />
    <glyph glyph-name="T" unicode="T" 
d="M224 0l110 625h-233l12 75h553l-13 -75h-231l-110 -625h-88z" />
    <glyph glyph-name="U" unicode="U" 
d="M60 224l84 476h86l-82 -466q-14 -84 21.5 -127t116.5 -43q82 0 131 44.5t64 125.5l82 466h86l-85 -485q-20 -110 -93 -170t-191 -60q-116 0 -177.5 65t-42.5 174z" />
    <glyph glyph-name="V" unicode="V" 
d="M210 0l-122 700h94l96 -604h2l303 604h99l-366 -700h-106z" />
    <glyph glyph-name="W" unicode="W" 
d="M84 0l44 700h85l-47 -578h2l172 408h53l29 -408h2l155 578h85l-202 -700h-97l-26 370h-2l-155 -370h-98z" />
    <glyph glyph-name="X" unicode="X" 
d="M10 0l280 365l-140 335h90l109 -276h2l198 276h98l-253 -341l150 -359h-90l-119 299h-2l-225 -299h-98z" />
    <glyph glyph-name="Y" unicode="Y" 
d="M219 0l52 295l-159 405h91l121 -325h2l233 325h101l-301 -405l-52 -295h-88z" />
    <glyph glyph-name="Z" unicode="Z" 
d="M13 0l11 67l491 556v3h-369l13 74h480l-11 -67l-491 -551v-2h392l-15 -80h-501z" />
    <glyph glyph-name="bracketleft" unicode="[" 
d="M131 -181l161 911h236l-12 -70h-160l-136 -772h160l-13 -69h-236z" />
    <glyph glyph-name="backslash" unicode="\" 
d="M533 -15l-66 -27l-360 758l66 29z" />
    <glyph glyph-name="bracketright" unicode="]" 
d="M518 730l-161 -911h-236l12 69h160l136 772h-160l13 70h236z" />
    <glyph glyph-name="asciicircum" unicode="^" 
d="M128 325l173 375h48l173 -375h-75l-122 280l-123 -280h-74z" />
    <glyph glyph-name="underscore" unicode="_" 
d="M74 -137v67h502v-67h-502z" />
    <glyph glyph-name="grave" unicode="`" 
d="M343 595l-107 121h100l78 -121h-71z" />
    <glyph glyph-name="a" unicode="a" 
d="M441 256l12 69q11 68 -15 107t-86 39q-72 0 -127.5 -81.5t-55.5 -196.5q0 -58 28 -95t71 -37q53 0 104.5 48t68.5 147zM479 0h-74l10 61h-2q-18 -29 -56.5 -52.5t-95.5 -23.5q-70 0 -121 54t-51 153q0 148 79 250.5t188 102.5q85 0 121 -63h3l9 48h83z" />
    <glyph glyph-name="b" unicode="b" 
d="M200 341l-28 -163q-8 -45 29.5 -82t99.5 -37q87 0 138 66.5t51 176.5q0 73 -35.5 121t-102.5 48q-58 0 -100.5 -39.5t-51.5 -90.5zM57 0l129 730h82l-43 -243h2q56 58 146 58q87 0 143.5 -69t56.5 -174q0 -141 -73 -229t-185 -88q-61 0 -103 22.5t-62 52.5h-2l-11 -60
h-80z" />
    <glyph glyph-name="c" unicode="c" 
d="M468 191l80 -27q-26 -85 -86 -132t-147 -47q-98 0 -158.5 63.5t-60.5 170.5q0 147 81 236.5t190 89.5q96 0 151.5 -60.5t53.5 -151.5l-81 -6q0 60 -30 102t-95 42q-75 0 -130 -68.5t-55 -179.5q0 -76 38.5 -119t98.5 -43q111 0 150 130z" />
    <glyph glyph-name="d" unicode="d" 
d="M441 175l29 163q9 51 -27.5 92t-101.5 41q-81 0 -132.5 -70.5t-51.5 -180.5q0 -67 34 -114t99 -47q59 0 100.5 34t50.5 82zM416 0l8 48h-2q-14 -21 -53.5 -42t-89.5 -21q-95 0 -150.5 63t-55.5 165q0 148 76 240t188 92q53 0 92.5 -22.5t60.5 -52.5h2l47 260h83
l-129 -730h-77z" />
    <glyph glyph-name="e" unicode="e" 
d="M475 163l62 -51q-90 -127 -235 -127q-100 0 -162 65t-62 179q0 133 78.5 224.5t194.5 91.5q98 0 159.5 -61.5t61.5 -164.5l-5 -78h-404q-1 -9 -1 -18q0 -67 35 -115.5t106 -48.5q102 0 172 104zM171 307h319v3q0 4 0.5 9.5t0.5 9.5q0 61 -36 102t-105 41q-73 0 -121 -51
t-58 -114z" />
    <glyph glyph-name="f" unicode="f" 
d="M217 0l80 460h-169l12 70h171l18 90q11 61 42 85.5t81 24.5h119l-14 -75h-92q-31 0 -43 -11.5t-19 -49.5l-13 -64h192l-13 -70h-189l-81 -460h-82z" />
    <glyph glyph-name="g" unicode="g" 
d="M56 -91l73 30q15 -52 45 -78.5t87 -26.5q119 0 145 138l14 72h-2q-51 -59 -141 -59q-92 0 -150.5 63t-58.5 164q0 151 77.5 242t188.5 91q51 0 91.5 -20t62.5 -51h2l10 56h86l-93 -531q-22 -120 -78 -179.5t-161 -59.5q-79 0 -129.5 40.5t-68.5 108.5zM441 175l28 162
q9 51 -28.5 92.5t-101.5 41.5q-82 0 -134 -70t-52 -180q0 -68 35 -114.5t102 -46.5q57 0 99.5 33.5t51.5 81.5z" />
    <glyph glyph-name="h" unicode="h" 
d="M74 0l129 730h83l-44 -245h2q21 24 59 42t85 18q91 0 135 -58.5t28 -150.5l-59 -336h-84l58 324q27 146 -99 146q-54 0 -96.5 -35.5t-52.5 -92.5l-60 -342h-84z" />
    <glyph glyph-name="i" unicode="i" 
d="M361 638l16 92h93l-16 -92h-93zM164 460l12 70h261l-81 -460h174l-12 -70h-440l12 70h183l69 390h-178z" />
    <glyph glyph-name="j" unicode="j" 
d="M390 638l16 92h92l-15 -92h-93zM178 457l12 73h287l-94 -536q-17 -98 -68 -143.5t-125 -45.5q-53 0 -94 29.5t-52 59.5l63 46q11 -17 18 -26t27.5 -22t43.5 -13q39 0 66 31.5t38 92.5l81 454h-203z" />
    <glyph glyph-name="k" unicode="k" 
d="M100 0l129 730h84l-78 -437h2l260 237h109l-236 -214l163 -316h-89l-136 268h-2l-89 -82l-33 -186h-84z" />
    <glyph glyph-name="l" unicode="l" 
d="M195 657l13 73h255l-116 -657h180l-13 -73h-440l13 73h177l103 584h-172z" />
    <glyph glyph-name="m" unicode="m" 
d="M26 0l93 530h72l-9 -51h2q15 29 40.5 47.5t52.5 18.5q36 0 57.5 -23t24.5 -59h2q17 36 47.5 59t69.5 23q58 0 86 -43.5t14 -123.5l-67 -378h-77l66 387q13 84 -48 84q-31 0 -55 -34t-35 -96l-59 -341h-70l66 386q7 37 -5 61t-45 24q-63 0 -86 -130l-60 -341h-77z" />
    <glyph glyph-name="n" unicode="n" 
d="M63 0l93 530h80l-7 -48h2q23 25 63 44t88 19q86 0 134.5 -55t32.5 -145l-60 -345h-83l59 332q12 69 -17 103.5t-89 34.5q-58 0 -100 -35t-52 -93l-61 -342h-83z" />
    <glyph glyph-name="o" unicode="o" 
d="M298 59q80 0 135 64.5t55 178.5q0 74 -37 121.5t-101 47.5q-80 0 -135 -64.5t-55 -178.5q0 -74 37 -121.5t101 -47.5zM299 -15q-99 0 -160 68.5t-61 175.5q0 143 79.5 229.5t192.5 86.5q100 0 160.5 -68t60.5 -176q0 -143 -79.5 -229.5t-192.5 -86.5z" />
    <glyph glyph-name="p" unicode="p" 
d="M207 342l-29 -167q-8 -43 31 -79.5t100 -36.5q86 0 139 67t53 175q0 75 -37 122.5t-104 47.5q-58 0 -101 -39.5t-52 -89.5zM24 -225l133 755h81l-9 -50h2q21 26 60 45.5t87 19.5q90 0 147.5 -68t57.5 -173q0 -143 -74.5 -231t-185.5 -88q-109 0 -163 75h-2l-51 -285h-83z
" />
    <glyph glyph-name="q" unicode="q" 
d="M440 174l30 166q9 51 -28 91t-103 40q-82 0 -134.5 -70t-52.5 -179q0 -68 34 -115.5t101 -47.5q58 0 101 34t52 81zM371 -225l48 272h-2q-18 -24 -57.5 -43t-85.5 -19q-89 0 -147.5 63.5t-58.5 165.5q0 148 77.5 239.5t187.5 91.5q51 0 91.5 -19.5t63.5 -51.5h2l10 56h87
l-133 -755h-83z" />
    <glyph glyph-name="r" unicode="r" 
d="M124 0l93 530h80l-13 -77h2q24 36 70.5 61t95.5 25q62 0 103 -36t48 -105l-89 -20q-14 78 -90 78q-59 0 -105 -44t-59 -117l-52 -295h-84z" />
    <glyph glyph-name="s" unicode="s" 
d="M87 182l79 12q16 -136 155 -136q74 0 113.5 29t39.5 71q0 22 -8.5 35t-41.5 27.5t-100 31.5q-108 27 -150 56t-42 84q0 62 55.5 107.5t155.5 45.5t156.5 -47t63.5 -117l-76 -14q-18 108 -144 108q-65 0 -99 -24.5t-34 -56.5q0 -27 25 -39.5t120 -38.5q87 -23 130.5 -46.5
t54.5 -45.5t11 -59q0 -74 -59.5 -127t-167.5 -53q-110 0 -172 56t-65 141z" />
    <glyph glyph-name="t" unicode="t" 
d="M373 0q-75 0 -105.5 24.5t-30.5 77.5q0 34 8 79l50 279h-168l11 70h171l26 130h78l-23 -130h191l-12 -70h-191l-43 -242q-12 -69 -12 -92q0 -26 14.5 -36.5t49.5 -10.5h59l-14 -79h-59z" />
    <glyph glyph-name="u" unicode="u" 
d="M93 184l60 346h84l-60 -343q-22 -126 105 -126q126 0 151 136l58 333h84l-93 -530h-83l9 51h-2q-6 -9 -19 -21t-49 -28.5t-78 -16.5q-87 0 -136 49t-31 150z" />
    <glyph glyph-name="v" unicode="v" 
d="M245 0l-120 530h85l88 -414h2l229 414h95l-306 -530h-73z" />
    <glyph glyph-name="w" unicode="w" 
d="M124 0l6 530h79l-15 -399h2l111 229h74l29 -229h2l135 399h82l-190 -530h-74l-35 263h-2l-127 -263h-77z" />
    <glyph glyph-name="x" unicode="x" 
d="M44 0l227 273l-124 257h86l94 -206h2l161 206h99l-213 -258l132 -272h-86l-101 218h-2l-176 -218h-99z" />
    <glyph glyph-name="y" unicode="y" 
d="M106 -225l148 267l-118 488h84l90 -387h2l205 387h94l-418 -755h-87z" />
    <glyph glyph-name="z" unicode="z" 
d="M55 0l11 63l403 393v2h-314l11 72h430l-11 -62l-398 -389v-2h328l-15 -78z" />
    <glyph glyph-name="braceleft" unicode="{" 
d="M177 -39l42 236q5 32 -4 45t-38 13h-29l16 89h28q29 0 43.5 14.5t20.5 46.5l38 206q11 67 44.5 93t94.5 26h78l-13 -70h-51q-42 0 -58.5 -16t-24.5 -60l-33 -182q-5 -28 -17 -49.5t-26 -32t-23.5 -15t-15.5 -5.5q6 -2 12.5 -7t17.5 -16.5t15.5 -31.5t0.5 -45l-42 -239
q-7 -38 4.5 -55t51.5 -17h52l-12 -70h-64q-70 0 -95.5 33t-12.5 109z" />
    <glyph glyph-name="bar" unicode="|" 
d="M285 -300v1075h80v-1075h-80z" />
    <glyph glyph-name="braceright" unicode="}" 
d="M134 -181l12 70h52q42 0 58.5 16.5t24.5 59.5l41 232q13 78 80 102q-8 3 -19 11t-21 32.5t-4 56.5l34 189q6 39 -5 55.5t-51 16.5h-52l12 70h64q69 0 94.5 -32.5t12.5 -108.5l-33 -187q-5 -32 4 -45t38 -13h29l-16 -89h-28q-29 0 -43.5 -14.5t-20.5 -46.5l-46 -256
q-11 -67 -45 -93t-94 -26h-78z" />
    <glyph glyph-name="asciitilde" unicode="~" 
d="M219 391q-19 0 -33 -7t-24.5 -25t-13.5 -25.5t-11 -31.5l-55 17q14 61 48 102t89 41q42 0 80.5 -22t71.5 -43.5t60 -21.5q19 0 33 7t24.5 25t13.5 25.5t11 31.5l55 -17q-14 -61 -48 -102t-89 -41q-42 0 -81.5 22t-72 43.5t-58.5 21.5z" />
    <glyph glyph-name="nbspace" unicode="&#xa0;" horiz-adv-x="600" 
 />
    <glyph glyph-name="exclamdown" unicode="&#xa1;" 
d="M385 322l-87 -492h-82l87 492h82zM433 530l-20 -115h-116l20 115h116z" />
    <glyph glyph-name="cent" unicode="&#xa2;" 
d="M457 187l78 -24q-25 -85 -85 -131.5t-145 -46.5h-5l-16 -95h-40l17 99q-79 14 -126 77t-47 158q0 146 79.5 233.5t189.5 87.5h1l15 86h39l-16 -89q79 -13 123.5 -71t41.5 -138l-78 -6q1 52 -23.5 92t-75.5 49l-71 -409q103 2 144 128zM170 227q0 -68 28 -110t76 -54
l71 408q-75 -5 -125 -71t-50 -173z" />
    <glyph glyph-name="sterling" unicode="&#xa3;" 
d="M32 0l13 76h37q33 0 49.5 14t21.5 47l32 178h-99l12 66h99l21 121q19 104 77 158.5t145 54.5q82 0 131 -52t46 -153l-77 -7q0 70 -23 104t-81 34q-110 0 -136 -148l-20 -112h237l-12 -66h-238l-42 -239h310l-14 -76h-489z" />
    <glyph glyph-name="currency" unicode="&#xa4;" 
d="M70 114l65 65q-47 64 -47 150q0 83 47 149l-65 65l40 40l63 -64q67 57 151 57q88 0 153 -55l62 62l40 -40l-64 -64q46 -67 46 -150q0 -87 -47 -151l65 -64l-40 -40l-64 63q-64 -51 -151 -51q-89 0 -150 52l-64 -64zM325 161q60 0 103 40.5t43 126.5q0 88 -43 129.5
t-103 41.5q-62 0 -105.5 -41t-43.5 -130q0 -87 43.5 -127t105.5 -40z" />
    <glyph glyph-name="yen" unicode="&#xa5;" 
d="M54 144l11 62h207l16 89h-208l12 62h171l-134 343h89l120 -323h2l234 323h99l-255 -343h166l-11 -62h-201l-16 -89h201l-11 -62h-201l-25 -144h-84l25 144h-207z" />
    <glyph glyph-name="brokenbar" unicode="&#xa6;" 
d="M288 321v327h79v-327h-79zM288 -131v327h79v-327h-79z" />
    <glyph glyph-name="section" unicode="&#xa7;" 
d="M451 82q26 -33 26 -81q0 -77 -59 -129t-149 -52q-92 0 -142.5 54t-46.5 151l79 6q0 -70 26.5 -103.5t83.5 -33.5q56 0 90.5 30t34.5 79q0 52 -70 87l-128 68q-61 32 -86.5 63.5t-25.5 76.5q0 90 115 155q-26 33 -26 81q0 77 59 129t149 52q92 0 142.5 -54t46.5 -151
l-79 -6q0 70 -26.5 103.5t-83.5 33.5q-56 0 -90.5 -30t-34.5 -79q0 -52 70 -87l128 -68q61 -32 86.5 -63.5t25.5 -76.5q0 -90 -115 -155zM406 129q77 45 77 102q0 24 -16.5 43.5t-60.5 42.5l-128 67q-31 15 -34 22q-77 -45 -77 -102q0 -24 16.5 -43.5t60.5 -42.5l128 -67
q31 -15 34 -22z" />
    <glyph glyph-name="dieresis" unicode="&#xa8;" 
d="M176 612l15 90h91l-16 -90h-90zM368 612l15 90h91l-15 -90h-91z" />
    <glyph glyph-name="copyright" unicode="&#xa9;" 
d="M329 46q-108 0 -182.5 89t-74.5 219t74.5 218.5t182.5 88.5q104 0 176 -89t72 -218q0 -130 -72 -219t-176 -89zM329 94q84 0 141.5 74.5t57.5 185.5q0 110 -57.5 184t-141.5 74q-88 0 -148 -74t-60 -184q0 -111 60 -185.5t148 -74.5zM396 307l52 -10q-6 -61 -36 -98.5
t-79 -37.5q-56 0 -94 50t-38 137q0 92 37.5 143.5t94.5 51.5q49 0 78.5 -37.5t34.5 -93.5l-52 -10q-3 39 -18.5 65t-42.5 26q-34 0 -55.5 -37.5t-21.5 -107.5q0 -67 22 -102.5t55 -35.5q56 0 63 97z" />
    <glyph glyph-name="ordfeminine" unicode="&#xaa;" 
d="M371 384l6 36h-1q-28 -45 -90 -45q-46 0 -71.5 23t-25.5 62q0 40 26.5 66t91.5 38q63 12 79.5 19.5t19.5 24.5q3 19 -14.5 34t-46.5 15q-59 0 -78 -53l-47 19q12 38 44.5 60.5t80.5 22.5q54 0 88 -31t24 -89l-35 -202h-51zM383 486l12 59h-1q-13 -13 -73 -26
q-75 -16 -75 -53q0 -39 53 -39q35 0 57.5 17.5t26.5 41.5z" />
    <glyph glyph-name="guillemotleft" unicode="&#xab;" 
d="M191 87l-78 211l138 163h90l-149 -173l75 -201h-76zM387 87l-78 211l138 163h90l-149 -173l75 -201h-76z" />
    <glyph glyph-name="logicalnot" unicode="&#xac;" 
d="M86 377v74h477v-248h-80v174h-397z" />
    <glyph glyph-name="registered" unicode="&#xae;" 
d="M325 382q62 0 104.5 43t42.5 105t-42.5 104t-104.5 42t-103.5 -42t-41.5 -104q0 -63 41.5 -105.5t103.5 -42.5zM325 354q-74 0 -125 51t-51 125t51 125t125 51t125 -51t51 -125t-51 -125t-125 -51zM264 424v210h64q76 0 76 -62q0 -48 -52 -60l47 -88h-32l-44 86h-32v-86
h-27zM291 535h38q46 0 46 37t-47 37h-37v-74z" />
    <glyph glyph-name="macron" unicode="&#xaf;" 
d="M176 620l10 57h288l-10 -57h-288z" />
    <glyph glyph-name="degree" unicode="&#xb0;" 
d="M324 487q-59 0 -97 40.5t-38 100.5q0 59 39 101t96 42q59 0 98 -41t39 -102t-38.5 -101t-98.5 -40zM324 547q70 0 70 81q0 83 -70 83q-69 0 -69 -83q0 -81 69 -81z" />
    <glyph glyph-name="plusminus" unicode="&#xb1;" 
d="M73 418v70h214v167h74v-167h215v-70h-215v-188h-74v188h-214zM100 96v70h457v-70h-457z" />
    <glyph glyph-name="twosuperior" unicode="&#xb2;" 
d="M157 473l9 49q10 65 39 98t101 62q70 28 96 50t26 54q0 27 -19.5 43t-50.5 16q-74 0 -94 -84l-62 15q10 60 53 94.5t101 34.5q63 0 100 -33.5t37 -84.5q0 -57 -38.5 -89.5t-112.5 -62.5q-58 -24 -78 -43.5t-25 -52.5h212l-12 -66h-282z" />
    <glyph glyph-name="threesuperior" unicode="&#xb3;" 
d="M166 623l63 9q5 -105 92 -105q41 0 63 22t22 60q0 62 -76 62h-24l10 54h25q36 0 57.5 17.5t21.5 52.5q0 23 -17 37.5t-46 14.5q-63 0 -82 -66l-57 17q10 45 47 76t93 31q55 0 90 -29t35 -72q1 -37 -20 -64.5t-54 -39.5v-2q24 -8 42 -32.5t18 -58.5q0 -63 -38.5 -101
t-110.5 -38q-73 0 -112.5 41.5t-41.5 113.5z" />
    <glyph glyph-name="acute" unicode="&#xb4;" 
d="M236 595l78 121h100l-107 -121h-71z" />
    <glyph glyph-name="mu" unicode="&#xb5;" 
d="M110 -225v755h80v-321q0 -73 37.5 -110.5t100.5 -37.5q61 0 96.5 37.5t35.5 100.5v331h80v-530h-80v51h-2q-3 -7 -18 -21t-48 -29.5t-70 -15.5q-89 0 -133 50v-260h-79z" />
    <glyph glyph-name="paragraph" unicode="&#xb6;" 
d="M139 -136l78 444q-59 2 -96.5 40t-37.5 99q0 88 56 140.5t141 52.5h286l-137 -776h-73l124 704h-142l-123 -704h-76z" />
    <glyph glyph-name="periodcentered" unicode="&#xb7;" 
d="M256 320l21 116h117l-21 -116h-117z" />
    <glyph glyph-name="cedilla" unicode="&#xb8;" 
d="M215 -172l31 40q32 -29 73 -29q58 0 58 43q0 18 -16 27.5t-38 9.5q-14 0 -27.5 -4.5t-19.5 -8.5l-6 -4l-34 18l47 80h47l-37 -58v-1q21 15 52 15q34 0 61 -19.5t27 -55.5q0 -45 -30.5 -69.5t-78.5 -24.5q-68 0 -109 41z" />
    <glyph glyph-name="onesuperior" unicode="&#xb9;" 
d="M161 473l11 66h114l51 282l-103 -54l14 76l108 57h59l-65 -361h110l-11 -66h-288z" />
    <glyph glyph-name="ordmasculine" unicode="&#xba;" 
d="M180 518q0 87 46 137.5t112 50.5q60 0 96 -40.5t36 -102.5q0 -88 -46 -138t-112 -50q-60 0 -96 40.5t-36 102.5zM240 524q0 -38 18.5 -65t52.5 -27q42 0 71 34.5t29 93.5q0 37 -19 63.5t-54 26.5q-42 0 -70 -33.5t-28 -92.5z" />
    <glyph glyph-name="guillemotright" unicode="&#xbb;" 
d="M109 87l152 178l-74 196h76l78 -206l-142 -168h-90zM309 87l152 178l-74 196h76l78 -206l-142 -168h-90z" />
    <glyph glyph-name="onequarter" unicode="&#xbc;" 
d="M97 -98l11 61l216 276h101l-49 -278h52l-11 -59h-50l-14 -90h-66l15 90h-205zM199 463l11 66h114l51 282l-103 -54l14 76l108 57h59l-65 -361h110l-11 -66h-288zM104 315l11 68h430l-11 -68h-430zM172 -39h139l43 231h-2z" />
    <glyph glyph-name="onehalf" unicode="&#xbd;" 
d="M114 -188l9 49q10 65 39 98t101 62q70 28 96 50t26 54q0 27 -19.5 43t-50.5 16q-74 0 -94 -84l-62 15q10 60 53 94.5t101 34.5q63 0 100 -33.5t37 -84.5q0 -57 -38.5 -89.5t-112.5 -62.5q-58 -24 -78 -43.5t-25 -52.5h212l-12 -66h-282zM199 463l11 66h114l51 282
l-103 -54l14 76l108 57h59l-65 -361h110l-11 -66h-288zM104 315l11 68h430l-11 -68h-430z" />
    <glyph glyph-name="threequarters" unicode="&#xbe;" 
d="M104 316l11 68h430l-11 -68h-430zM204 613l63 9q5 -105 92 -105q41 0 63 22t22 60q0 62 -76 62h-24l10 54h25q36 0 57.5 17.5t21.5 52.5q0 23 -17 37.5t-46 14.5q-63 0 -82 -66l-57 17q10 45 47 76t93 31q55 0 90 -29t35 -72q1 -37 -20 -64.5t-54 -39.5v-2
q24 -8 42 -32.5t18 -58.5q0 -63 -38.5 -101t-110.5 -38q-73 0 -112.5 41.5t-41.5 113.5zM103 -98l11 61l216 276h101l-49 -278h52l-11 -59h-50l-14 -90h-66l15 90h-205zM178 -39h139l43 231h-2z" />
    <glyph glyph-name="questiondown" unicode="&#xbf;" 
d="M422 340l-11 -56q-8 -44 -38 -77t-65.5 -52.5l-70 -39t-57.5 -50t-23 -73.5q0 -41 33 -72.5t95 -31.5q64 0 102 38t50 105l75 -16q-12 -89 -73 -144.5t-155 -55.5q-85 0 -143 45.5t-62 115.5q-3 36 4 63q11 51 49.5 89.5t79 57.5t76.5 45t42 56l12 53h80zM469 530
l-21 -116h-117l21 116h117z" />
    <glyph glyph-name="Agrave" unicode="&#xc0;" 
d="M496 0l-26 141h-318l-74 -141h-89l375 700h87l129 -700h-84zM388 590l-201 -381h271l-68 381h-2zM372 765l-107 121h100l78 -121h-71z" />
    <glyph glyph-name="Aacute" unicode="&#xc1;" 
d="M496 0l-26 141h-318l-74 -141h-89l375 700h87l129 -700h-84zM388 590l-201 -381h271l-68 381h-2zM384 765l78 121h100l-107 -121h-71z" />
    <glyph glyph-name="Acircumflex" unicode="&#xc2;" 
d="M496 0l-26 141h-318l-74 -141h-89l375 700h87l129 -700h-84zM388 590l-201 -381h271l-68 381h-2zM333 748l-41 45l78 78h101l62 -86l-51 -37l-63 87z" />
    <glyph glyph-name="Atilde" unicode="&#xc3;" 
d="M496 0l-26 141h-318l-74 -141h-89l375 700h87l129 -700h-84zM388 590l-201 -381h271l-68 381h-2zM317 765h-46q33 94 103 94q28 0 60 -19t50 -19q27 0 40 33h46q-33 -94 -103 -94q-27 0 -60.5 19t-49.5 19q-27 0 -40 -33z" />
    <glyph glyph-name="Adieresis" unicode="&#xc4;" 
d="M496 0l-26 141h-318l-74 -141h-89l375 700h87l129 -700h-84zM388 590l-201 -381h271l-68 381h-2zM272 765l16 91h91l-17 -91h-90zM464 765l16 91h91l-16 -91h-91z" />
    <glyph glyph-name="Aring" unicode="&#xc5;" 
d="M496 0l-26 141h-318l-74 -141h-89l373 697q-43 25 -43 76q0 49 30.5 82t77.5 33q39 0 64.5 -25.5t25.5 -62.5t-17.5 -66t-47.5 -41l128 -693h-84zM388 590l-201 -381h271l-68 381h-2zM411 729q22 0 38.5 19t16.5 51q0 22 -12 33.5t-29 11.5q-23 0 -39 -18.5t-16 -51.5
q0 -21 12.5 -33t28.5 -12z" />
    <glyph glyph-name="AE" unicode="&#xc6;" 
d="M-19 0l385 700h301l-13 -76h-169l-40 -227h141l-13 -73h-141l-44 -248h169l-13 -76h-248l26 149h-176l-81 -149h-84zM184 221h151l79 416h-2z" />
    <glyph glyph-name="Ccedilla" unicode="&#xc7;" 
d="M214 -172l31 40q32 -29 73 -29q58 0 58 43q0 18 -16 27.5t-38 9.5q-14 0 -27.5 -4.5t-19.5 -8.5l-6 -4l-34 18l40 69q-90 17 -144.5 96.5t-54.5 197.5q0 192 92 312t218 120q100 0 163 -68t62 -177l-87 -7q-2 76 -35.5 125t-105.5 49q-90 0 -154.5 -101.5t-64.5 -240.5
q0 -102 44.5 -165.5t115.5 -63.5q66 0 109 51.5t61 136.5l86 -23q-22 -115 -89 -180.5t-171 -65.5h-1l-27 -43v-1q21 15 52 15q34 0 61 -19.5t27 -55.5q0 -45 -30.5 -69.5t-78.5 -24.5q-68 0 -109 41z" />
    <glyph glyph-name="Egrave" unicode="&#xc8;" 
d="M81 0l123 700h412l-13 -75h-328l-40 -228h300l-12 -71h-301l-44 -249h329l-14 -77h-412zM385 765l-107 121h100l78 -121h-71z" />
    <glyph glyph-name="Eacute" unicode="&#xc9;" 
d="M81 0l123 700h412l-13 -75h-328l-40 -228h300l-12 -71h-301l-44 -249h329l-14 -77h-412zM360 765l78 121h100l-107 -121h-71z" />
    <glyph glyph-name="Ecircumflex" unicode="&#xca;" 
d="M81 0l123 700h412l-13 -75h-328l-40 -228h300l-12 -71h-301l-44 -249h329l-14 -77h-412zM332 748l-41 45l78 78h101l62 -86l-51 -37l-63 87z" />
    <glyph glyph-name="Edieresis" unicode="&#xcb;" 
d="M81 0l123 700h412l-13 -75h-328l-40 -228h300l-12 -71h-301l-44 -249h329l-14 -77h-412zM266 765l16 91h91l-17 -91h-90zM458 765l16 91h91l-16 -91h-91z" />
    <glyph glyph-name="Igrave" unicode="&#xcc;" 
d="M163 625l13 75h420l-13 -75h-168l-97 -550h168l-13 -75h-420l13 75h167l97 550h-167zM352 765l-107 121h100l78 -121h-71z" />
    <glyph glyph-name="Iacute" unicode="&#xcd;" 
d="M163 625l13 75h420l-13 -75h-168l-97 -550h168l-13 -75h-420l13 75h167l97 550h-167zM356 765l78 121h100l-107 -121h-71z" />
    <glyph glyph-name="Icircumflex" unicode="&#xce;" 
d="M163 625l13 75h420l-13 -75h-168l-97 -550h168l-13 -75h-420l13 75h167l97 550h-167zM311 748l-41 45l78 78h101l62 -86l-51 -37l-63 87z" />
    <glyph glyph-name="Idieresis" unicode="&#xcf;" 
d="M163 625l13 75h420l-13 -75h-168l-97 -550h168l-13 -75h-420l13 75h167l97 550h-167zM252 765l16 91h91l-17 -91h-90zM444 765l16 91h91l-16 -91h-91z" />
    <glyph glyph-name="Eth" unicode="&#xd0;" 
d="M64 0l58 331h-67l12 69h67l53 300h150q114 0 186 -76t72 -208q0 -105 -29 -186t-80 -130.5t-115.5 -74.5t-139.5 -25h-167zM159 77h69q126 0 202.5 91t76.5 246q0 104 -48.5 157.5t-136.5 53.5h-66l-40 -225h187l-12 -69h-187z" />
    <glyph glyph-name="Ntilde" unicode="&#xd1;" 
d="M37 0l123 700h90l182 -571h2l100 571h79l-123 -700h-90l-181 571h-2l-100 -571h-80zM310 765h-46q33 94 103 94q28 0 60 -19t50 -19q27 0 40 33h46q-33 -94 -103 -94q-27 0 -60.5 19t-49.5 19q-27 0 -40 -33z" />
    <glyph glyph-name="Ograve" unicode="&#xd2;" 
d="M294 66q91 0 155.5 96.5t64.5 244.5q0 106 -40.5 168t-113.5 62q-92 0 -158 -98t-66 -246q0 -106 41 -166.5t117 -60.5zM293 -15q-112 0 -178.5 82t-66.5 221q0 100 27.5 183t73 135t101 80.5t113.5 28.5q108 0 174 -83.5t66 -219.5q0 -100 -27.5 -183t-72.5 -135
t-99.5 -80.5t-110.5 -28.5zM343 765l-107 121h100l78 -121h-71z" />
    <glyph glyph-name="Oacute" unicode="&#xd3;" 
d="M294 66q91 0 155.5 96.5t64.5 244.5q0 106 -40.5 168t-113.5 62q-92 0 -158 -98t-66 -246q0 -106 41 -166.5t117 -60.5zM293 -15q-112 0 -178.5 82t-66.5 221q0 100 27.5 183t73 135t101 80.5t113.5 28.5q108 0 174 -83.5t66 -219.5q0 -100 -27.5 -183t-72.5 -135
t-99.5 -80.5t-110.5 -28.5zM341 765l78 121h100l-107 -121h-71z" />
    <glyph glyph-name="Ocircumflex" unicode="&#xd4;" 
d="M294 66q91 0 155.5 96.5t64.5 244.5q0 106 -40.5 168t-113.5 62q-92 0 -158 -98t-66 -246q0 -106 41 -166.5t117 -60.5zM293 -15q-112 0 -178.5 82t-66.5 221q0 100 27.5 183t73 135t101 80.5t113.5 28.5q108 0 174 -83.5t66 -219.5q0 -100 -27.5 -183t-72.5 -135
t-99.5 -80.5t-110.5 -28.5zM297 748l-41 45l78 78h101l62 -86l-51 -37l-63 87z" />
    <glyph glyph-name="Otilde" unicode="&#xd5;" 
d="M294 66q91 0 155.5 96.5t64.5 244.5q0 106 -40.5 168t-113.5 62q-92 0 -158 -98t-66 -246q0 -106 41 -166.5t117 -60.5zM293 -15q-112 0 -178.5 82t-66.5 221q0 100 27.5 183t73 135t101 80.5t113.5 28.5q108 0 174 -83.5t66 -219.5q0 -100 -27.5 -183t-72.5 -135
t-99.5 -80.5t-110.5 -28.5zM276 765h-46q33 94 103 94q28 0 60 -19t50 -19q27 0 40 33h46q-33 -94 -103 -94q-27 0 -60.5 19t-49.5 19q-27 0 -40 -33z" />
    <glyph glyph-name="Odieresis" unicode="&#xd6;" 
d="M294 66q91 0 155.5 96.5t64.5 244.5q0 106 -40.5 168t-113.5 62q-92 0 -158 -98t-66 -246q0 -106 41 -166.5t117 -60.5zM293 -15q-112 0 -178.5 82t-66.5 221q0 100 27.5 183t73 135t101 80.5t113.5 28.5q108 0 174 -83.5t66 -219.5q0 -100 -27.5 -183t-72.5 -135
t-99.5 -80.5t-110.5 -28.5zM233 765l16 91h91l-17 -91h-90zM425 765l16 91h91l-16 -91h-91z" />
    <glyph glyph-name="multiply" unicode="&#xd7;" 
d="M106 168l168 168l-158 159l50 50l158 -159l159 159l50 -50l-159 -159l169 -168l-50 -50l-169 168l-168 -168z" />
    <glyph glyph-name="Oslash" unicode="&#xd8;" 
d="M293 -15q-99 0 -162 63l-30 -41l-39 27l38 52q-52 78 -52 202q0 100 27.5 183t73 135t101 80.5t113.5 28.5q91 0 155 -62l29 40l37 -27l-36 -49q55 -82 55 -205q0 -100 -27.5 -183t-72.5 -135t-99.5 -80.5t-110.5 -28.5zM294 66q91 0 155.5 96.5t64.5 244.5q0 76 -22 133
l-309 -421q41 -53 111 -53zM136 293q0 -76 21 -130l310 421q-41 53 -107 53q-92 0 -158 -98t-66 -246z" />
    <glyph glyph-name="Ugrave" unicode="&#xd9;" 
d="M60 224l84 476h86l-82 -466q-14 -84 21.5 -127t116.5 -43q82 0 131 44.5t64 125.5l82 466h86l-85 -485q-20 -110 -93 -170t-191 -60q-116 0 -177.5 65t-42.5 174zM367 765l-107 121h100l78 -121h-71z" />
    <glyph glyph-name="Uacute" unicode="&#xda;" 
d="M60 224l84 476h86l-82 -466q-14 -84 21.5 -127t116.5 -43q82 0 131 44.5t64 125.5l82 466h86l-85 -485q-20 -110 -93 -170t-191 -60q-116 0 -177.5 65t-42.5 174zM364 765l78 121h100l-107 -121h-71z" />
    <glyph glyph-name="Ucircumflex" unicode="&#xdb;" 
d="M60 224l84 476h86l-82 -466q-14 -84 21.5 -127t116.5 -43q82 0 131 44.5t64 125.5l82 466h86l-85 -485q-20 -110 -93 -170t-191 -60q-116 0 -177.5 65t-42.5 174zM317 748l-41 45l78 78h101l62 -86l-51 -37l-63 87z" />
    <glyph glyph-name="Udieresis" unicode="&#xdc;" 
d="M60 224l84 476h86l-82 -466q-14 -84 21.5 -127t116.5 -43q82 0 131 44.5t64 125.5l82 466h86l-85 -485q-20 -110 -93 -170t-191 -60q-116 0 -177.5 65t-42.5 174zM254 765l16 91h91l-17 -91h-90zM446 765l16 91h91l-16 -91h-91z" />
    <glyph glyph-name="Yacute" unicode="&#xdd;" 
d="M219 0l52 295l-159 405h91l121 -325h2l233 325h101l-301 -405l-52 -295h-88zM344 765l78 121h100l-107 -121h-71z" />
    <glyph glyph-name="Thorn" unicode="&#xde;" 
d="M64 0l123 700h82l-21 -117h134q88 0 145.5 -50t57.5 -131q0 -115 -77 -182t-199 -67h-136l-27 -153h-82zM186 229h134q74 0 127.5 45t53.5 126q0 51 -35.5 79.5t-99.5 28.5h-131z" />
    <glyph glyph-name="germandbls" unicode="&#xdf;" 
d="M71 0l87 505q18 104 76 157t149 53q85 0 140 -48t55 -119q0 -115 -109 -162q38 -15 64 -51t26 -91q0 -112 -68 -178t-205 -66h-36l12 74h29q97 0 143.5 45.5t46.5 126.5q0 52 -33.5 77.5t-86.5 25.5h-50l11 67h45q54 0 94 31.5t40 89.5q0 47 -31 76t-87 29
q-64 0 -98.5 -39.5t-49.5 -122.5l-83 -480h-81z" />
    <glyph glyph-name="agrave" unicode="&#xe0;" 
d="M441 256l12 69q11 68 -15 107t-86 39q-72 0 -127.5 -81.5t-55.5 -196.5q0 -58 28 -95t71 -37q53 0 104.5 48t68.5 147zM479 0h-74l10 61h-2q-18 -29 -56.5 -52.5t-95.5 -23.5q-70 0 -121 54t-51 153q0 148 79 250.5t188 102.5q85 0 121 -63h3l9 48h83zM324 595l-107 121
h100l78 -121h-71z" />
    <glyph glyph-name="aacute" unicode="&#xe1;" 
d="M441 256l12 69q11 68 -15 107t-86 39q-72 0 -127.5 -81.5t-55.5 -196.5q0 -58 28 -95t71 -37q53 0 104.5 48t68.5 147zM479 0h-74l10 61h-2q-18 -29 -56.5 -52.5t-95.5 -23.5q-70 0 -121 54t-51 153q0 148 79 250.5t188 102.5q85 0 121 -63h3l9 48h83zM341 595l78 121
h100l-107 -121h-71z" />
    <glyph glyph-name="acircumflex" unicode="&#xe2;" 
d="M441 256l12 69q11 68 -15 107t-86 39q-72 0 -127.5 -81.5t-55.5 -196.5q0 -58 28 -95t71 -37q53 0 104.5 48t68.5 147zM479 0h-74l10 61h-2q-18 -29 -56.5 -52.5t-95.5 -23.5q-70 0 -121 54t-51 153q0 148 79 250.5t188 102.5q85 0 121 -63h3l9 48h83zM287 582l-41 45
l78 78h101l62 -87l-51 -36l-63 87z" />
    <glyph glyph-name="atilde" unicode="&#xe3;" 
d="M441 256l12 69q11 68 -15 107t-86 39q-72 0 -127.5 -81.5t-55.5 -196.5q0 -58 28 -95t71 -37q53 0 104.5 48t68.5 147zM479 0h-74l10 61h-2q-18 -29 -56.5 -52.5t-95.5 -23.5q-70 0 -121 54t-51 153q0 148 79 250.5t188 102.5q85 0 121 -63h3l9 48h83zM273 603h-46
q34 93 103 93q28 0 60 -19t50 -19q27 0 40 33h46q-33 -93 -103 -93q-27 0 -60.5 18.5t-49.5 18.5q-27 0 -40 -32z" />
    <glyph glyph-name="adieresis" unicode="&#xe4;" 
d="M441 256l12 69q11 68 -15 107t-86 39q-72 0 -127.5 -81.5t-55.5 -196.5q0 -58 28 -95t71 -37q53 0 104.5 48t68.5 147zM479 0h-74l10 61h-2q-18 -29 -56.5 -52.5t-95.5 -23.5q-70 0 -121 54t-51 153q0 148 79 250.5t188 102.5q85 0 121 -63h3l9 48h83zM230 612l15 90h91
l-16 -90h-90zM422 612l15 90h91l-15 -90h-91z" />
    <glyph glyph-name="aring" unicode="&#xe5;" 
d="M479 0h-74l10 61h-2q-18 -29 -56.5 -52.5t-95.5 -23.5q-70 0 -121 54t-51 153q0 128 61.5 225t153.5 121q-38 25 -38 74t30.5 82t77.5 33q39 0 64.5 -26t25.5 -63q0 -72 -54 -102q44 -16 67 -54h3l9 48h83zM441 256l12 69q11 68 -15 107t-86 39q-72 0 -127.5 -81.5
t-55.5 -196.5q0 -58 28 -95t71 -37q53 0 104.5 48t68.5 147zM358 567q22 0 38.5 19t16.5 51q0 22 -12 33.5t-29 11.5q-23 0 -39 -18.5t-16 -51.5q0 -21 12.5 -33t28.5 -12z" />
    <glyph glyph-name="ae" unicode="&#xe6;" 
d="M175 302q27 11 41 17.5t35 20.5t31 32.5t10 41.5q0 26 -14 42.5t-39 16.5q-32 0 -57.5 -28t-39.5 -75l-66 21q18 68 65 111t100 43q43 0 72.5 -23.5t36.5 -59.5h3q22 34 57 58.5t78 24.5q56 0 87.5 -46.5t31.5 -131.5q0 -24 -3.5 -55.5t-6.5 -51.5l-3 -19h-251
q-5 -33 -5 -58q0 -55 19 -89.5t58 -34.5q54 0 100 112l65 -30q-62 -156 -170 -156q-100 0 -127 105h-3q-29 -49 -64.5 -77t-88.5 -28q-50 0 -80 32t-30 84q0 139 158 201zM357 307h174q7 34 7 67q0 98 -61 98q-44 0 -77 -53.5t-43 -111.5zM181 235q-87 -44 -87 -127
q0 -22 14.5 -36t38.5 -14q37 0 68.5 37.5t40.5 84.5l22 118h-2q-7 -18 -95 -63z" />
    <glyph glyph-name="ccedilla" unicode="&#xe7;" 
d="M228 -172l31 40q32 -29 73 -29q58 0 58 43q0 18 -16 27.5t-38 9.5q-14 0 -27.5 -4.5t-19.5 -8.5l-6 -4l-34 18l39 67q-87 8 -139.5 70.5t-52.5 161.5q0 147 81 236.5t190 89.5q96 0 151.5 -60.5t53.5 -151.5l-81 -6q0 60 -30 102t-95 42q-75 0 -130 -68.5t-55 -179.5
q0 -76 38.5 -119t98.5 -43q111 0 150 130l80 -27q-24 -81 -79 -127t-135 -51l-28 -44v-1q21 15 52 15q34 0 61 -19.5t27 -55.5q0 -45 -30.5 -69.5t-78.5 -24.5q-68 0 -109 41z" />
    <glyph glyph-name="egrave" unicode="&#xe8;" 
d="M475 163l62 -51q-90 -127 -235 -127q-100 0 -162 65t-62 179q0 133 78.5 224.5t194.5 91.5q98 0 159.5 -61.5t61.5 -164.5l-5 -78h-404q-1 -9 -1 -18q0 -67 35 -115.5t106 -48.5q102 0 172 104zM171 307h319v3q0 4 0.5 9.5t0.5 9.5q0 61 -36 102t-105 41q-73 0 -121 -51
t-58 -114zM326 595l-107 121h100l78 -121h-71z" />
    <glyph glyph-name="eacute" unicode="&#xe9;" 
d="M475 163l62 -51q-90 -127 -235 -127q-100 0 -162 65t-62 179q0 133 78.5 224.5t194.5 91.5q98 0 159.5 -61.5t61.5 -164.5l-5 -78h-404q-1 -9 -1 -18q0 -67 35 -115.5t106 -48.5q102 0 172 104zM171 307h319v3q0 4 0.5 9.5t0.5 9.5q0 61 -36 102t-105 41q-73 0 -121 -51
t-58 -114zM326 595l78 121h100l-107 -121h-71z" />
    <glyph glyph-name="ecircumflex" unicode="&#xea;" 
d="M475 163l62 -51q-90 -127 -235 -127q-100 0 -162 65t-62 179q0 133 78.5 224.5t194.5 91.5q98 0 159.5 -61.5t61.5 -164.5l-5 -78h-404q-1 -9 -1 -18q0 -67 35 -115.5t106 -48.5q102 0 172 104zM171 307h319v3q0 4 0.5 9.5t0.5 9.5q0 61 -36 102t-105 41q-73 0 -121 -51
t-58 -114zM286 582l-41 45l78 78h101l62 -87l-51 -36l-63 87z" />
    <glyph glyph-name="edieresis" unicode="&#xeb;" 
d="M475 163l62 -51q-90 -127 -235 -127q-100 0 -162 65t-62 179q0 133 78.5 224.5t194.5 91.5q98 0 159.5 -61.5t61.5 -164.5l-5 -78h-404q-1 -9 -1 -18q0 -67 35 -115.5t106 -48.5q102 0 172 104zM171 307h319v3q0 4 0.5 9.5t0.5 9.5q0 61 -36 102t-105 41q-73 0 -121 -51
t-58 -114zM227 612l15 90h91l-16 -90h-90zM419 612l15 90h91l-15 -90h-91z" />
    <glyph glyph-name="igrave" unicode="&#xec;" 
d="M343 595l-107 121h100l78 -121h-71zM164 460l12 70h261l-81 -460h174l-12 -70h-440l12 70h183l69 390h-178z" />
    <glyph glyph-name="iacute" unicode="&#xed;" 
d="M359 595l78 121h100l-107 -121h-71zM164 460l12 70h261l-81 -460h174l-12 -70h-440l12 70h183l69 390h-178z" />
    <glyph glyph-name="icircumflex" unicode="&#xee;" 
d="M164 460l12 70h261l-81 -460h174l-12 -70h-440l12 70h183l69 390h-178zM315 582l-41 45l78 78h101l62 -87l-51 -36l-63 87z" />
    <glyph glyph-name="idieresis" unicode="&#xef;" 
d="M256 612l15 90h91l-16 -90h-90zM448 612l15 90h91l-15 -90h-91zM164 460l12 70h261l-81 -460h174l-12 -70h-440l12 70h183l69 390h-178z" />
    <glyph glyph-name="eth" unicode="&#xf0;" 
d="M283 61q87 0 136.5 74t49.5 180q0 68 -39 112t-107 44q-77 0 -131 -65t-54 -178q0 -72 40 -119.5t105 -47.5zM248 619l-7 45l157 20q-27 45 -56 88l1 3h88q17 -27 45 -80l107 14l6 -45l-93 -12q61 -141 61 -287q0 -186 -76.5 -283t-197.5 -97q-103 0 -164 68t-61 176
q0 142 78 229t185 87q53 0 93 -22.5t61 -51.5h2q-15 94 -55 171z" />
    <glyph glyph-name="ntilde" unicode="&#xf1;" 
d="M63 0l93 530h80l-7 -48h2q23 25 63 44t88 19q86 0 134.5 -55t32.5 -145l-60 -345h-83l59 332q12 69 -17 103.5t-89 34.5q-58 0 -100 -35t-52 -93l-61 -342h-83zM291 603h-46q34 93 103 93q28 0 60 -19t50 -19q27 0 40 33h46q-33 -93 -103 -93q-27 0 -60.5 18.5
t-49.5 18.5q-27 0 -40 -32z" />
    <glyph glyph-name="ograve" unicode="&#xf2;" 
d="M298 59q80 0 135 64.5t55 178.5q0 74 -37 121.5t-101 47.5q-80 0 -135 -64.5t-55 -178.5q0 -74 37 -121.5t101 -47.5zM299 -15q-99 0 -160 68.5t-61 175.5q0 143 79.5 229.5t192.5 86.5q100 0 160.5 -68t60.5 -176q0 -143 -79.5 -229.5t-192.5 -86.5zM336 595l-107 121
h100l78 -121h-71z" />
    <glyph glyph-name="oacute" unicode="&#xf3;" 
d="M298 59q80 0 135 64.5t55 178.5q0 74 -37 121.5t-101 47.5q-80 0 -135 -64.5t-55 -178.5q0 -74 37 -121.5t101 -47.5zM299 -15q-99 0 -160 68.5t-61 175.5q0 143 79.5 229.5t192.5 86.5q100 0 160.5 -68t60.5 -176q0 -143 -79.5 -229.5t-192.5 -86.5zM328 595l78 121h100
l-107 -121h-71z" />
    <glyph glyph-name="ocircumflex" unicode="&#xf4;" 
d="M298 59q80 0 135 64.5t55 178.5q0 74 -37 121.5t-101 47.5q-80 0 -135 -64.5t-55 -178.5q0 -74 37 -121.5t101 -47.5zM299 -15q-99 0 -160 68.5t-61 175.5q0 143 79.5 229.5t192.5 86.5q100 0 160.5 -68t60.5 -176q0 -143 -79.5 -229.5t-192.5 -86.5zM284 582l-41 45
l78 78h101l62 -87l-51 -36l-63 87z" />
    <glyph glyph-name="otilde" unicode="&#xf5;" 
d="M298 59q80 0 135 64.5t55 178.5q0 74 -37 121.5t-101 47.5q-80 0 -135 -64.5t-55 -178.5q0 -74 37 -121.5t101 -47.5zM299 -15q-99 0 -160 68.5t-61 175.5q0 143 79.5 229.5t192.5 86.5q100 0 160.5 -68t60.5 -176q0 -143 -79.5 -229.5t-192.5 -86.5zM262 603h-46
q34 93 103 93q28 0 60 -19t50 -19q27 0 40 33h46q-33 -93 -103 -93q-27 0 -60.5 18.5t-49.5 18.5q-27 0 -40 -32z" />
    <glyph glyph-name="odieresis" unicode="&#xf6;" 
d="M298 59q80 0 135 64.5t55 178.5q0 74 -37 121.5t-101 47.5q-80 0 -135 -64.5t-55 -178.5q0 -74 37 -121.5t101 -47.5zM299 -15q-99 0 -160 68.5t-61 175.5q0 143 79.5 229.5t192.5 86.5q100 0 160.5 -68t60.5 -176q0 -143 -79.5 -229.5t-192.5 -86.5zM220 612l15 90h91
l-16 -90h-90zM412 612l15 90h91l-15 -90h-91z" />
    <glyph glyph-name="divide" unicode="&#xf7;" 
d="M253 566q0 30 20.5 50.5t50.5 20.5t50.5 -20.5t20.5 -50.5q0 -29 -20.5 -49.5t-50.5 -20.5t-50.5 20.5t-20.5 49.5zM253 141q0 30 20.5 50.5t50.5 20.5t50.5 -20.5t20.5 -50.5q0 -29 -20.5 -49.5t-50.5 -20.5t-50.5 20.5t-20.5 49.5zM133 319v70h384v-70h-384z" />
    <glyph glyph-name="oslash" unicode="&#xf8;" 
d="M73 45l43 42q-38 60 -38 142q0 143 79 229.5t191 86.5q99 0 160 -71l40 38l28 -30l-44 -42q35 -62 35 -139q0 -143 -78.5 -229.5t-190.5 -86.5q-98 0 -157 69l-39 -38zM173 146l280 271q-38 54 -105 54q-80 0 -135 -64.5t-55 -178.5q0 -48 15 -82zM474 380l-279 -269
q37 -52 102 -52q80 0 135 64.5t55 178.5q0 43 -13 78z" />
    <glyph glyph-name="ugrave" unicode="&#xf9;" 
d="M93 184l60 346h84l-60 -343q-22 -126 105 -126q126 0 151 136l58 333h84l-93 -530h-83l9 51h-2q-6 -9 -19 -21t-49 -28.5t-78 -16.5q-87 0 -136 49t-31 150zM342 595l-107 121h100l78 -121h-71z" />
    <glyph glyph-name="uacute" unicode="&#xfa;" 
d="M93 184l60 346h84l-60 -343q-22 -126 105 -126q126 0 151 136l58 333h84l-93 -530h-83l9 51h-2q-6 -9 -19 -21t-49 -28.5t-78 -16.5q-87 0 -136 49t-31 150zM330 595l78 121h100l-107 -121h-71z" />
    <glyph glyph-name="ucircumflex" unicode="&#xfb;" 
d="M93 184l60 346h84l-60 -343q-22 -126 105 -126q126 0 151 136l58 333h84l-93 -530h-83l9 51h-2q-6 -9 -19 -21t-49 -28.5t-78 -16.5q-87 0 -136 49t-31 150zM295 582l-41 45l78 78h101l62 -87l-51 -36l-63 87z" />
    <glyph glyph-name="udieresis" unicode="&#xfc;" 
d="M93 184l60 346h84l-60 -343q-22 -126 105 -126q126 0 151 136l58 333h84l-93 -530h-83l9 51h-2q-6 -9 -19 -21t-49 -28.5t-78 -16.5q-87 0 -136 49t-31 150zM231 612l15 90h91l-16 -90h-90zM423 612l15 90h91l-15 -90h-91z" />
    <glyph glyph-name="yacute" unicode="&#xfd;" 
d="M106 -225l148 267l-118 488h84l90 -387h2l205 387h94l-418 -755h-87zM344 595l78 121h100l-107 -121h-71z" />
    <glyph glyph-name="thorn" unicode="&#xfe;" 
d="M25 -225l167 948h79l-40 -233h2q55 55 143 55q90 0 147 -67.5t57 -173.5q0 -143 -74 -231t-184 -88q-108 0 -164 75h-2l-50 -285h-81zM206 342l-29 -167q-8 -43 31 -79.5t99 -36.5q87 0 139.5 67t52.5 175q0 75 -36.5 122.5t-103.5 47.5q-58 0 -101.5 -39.5t-51.5 -89.5z
" />
    <glyph glyph-name="ydieresis" unicode="&#xff;" 
d="M106 -225l148 267l-118 488h84l90 -387h2l205 387h94l-418 -755h-87zM235 612l15 90h91l-16 -90h-90zM427 612l15 90h91l-15 -90h-91z" />
    <glyph glyph-name="Amacron" unicode="&#x100;" 
d="M496 0l-26 141h-318l-74 -141h-89l375 700h87l129 -700h-84zM388 590l-201 -381h271l-68 381h-2zM270 765l10 57h288l-10 -57h-288z" />
    <glyph glyph-name="amacron" unicode="&#x101;" 
d="M441 256l12 69q11 68 -15 107t-86 39q-72 0 -127.5 -81.5t-55.5 -196.5q0 -58 28 -95t71 -37q53 0 104.5 48t68.5 147zM479 0h-74l10 61h-2q-18 -29 -56.5 -52.5t-95.5 -23.5q-70 0 -121 54t-51 153q0 148 79 250.5t188 102.5q85 0 121 -63h3l9 48h83zM229 620l10 57h288
l-10 -57h-288z" />
    <glyph glyph-name="Abreve" unicode="&#x102;" 
d="M496 0l-26 141h-318l-74 -141h-89l375 700h87l129 -700h-84zM388 590l-201 -381h271l-68 381h-2zM306 872h45q0 -56 69 -56q68 0 86 56h48q-10 -56 -46.5 -87.5t-90.5 -31.5q-48 0 -79.5 24.5t-33.5 67.5q0 17 2 27z" />
    <glyph glyph-name="abreve" unicode="&#x103;" 
d="M441 256l12 69q11 68 -15 107t-86 39q-72 0 -127.5 -81.5t-55.5 -196.5q0 -58 28 -95t71 -37q53 0 104.5 48t68.5 147zM479 0h-74l10 61h-2q-18 -29 -56.5 -52.5t-95.5 -23.5q-70 0 -121 54t-51 153q0 148 79 250.5t188 102.5q85 0 121 -63h3l9 48h83zM253 704h45
q0 -56 69 -56q68 0 86 56h48q-10 -56 -46.5 -87.5t-90.5 -31.5q-48 0 -79.5 24.5t-33.5 67.5q0 17 2 27z" />
    <glyph glyph-name="Aogonek" unicode="&#x104;" 
d="M496 0l-26 141h-318l-74 -141h-89l375 700h87l129 -700q-80 -72 -80 -117q0 -39 47 -39q32 0 66 37l32 -28q-53 -63 -119 -63q-40 0 -70 16.5t-30 56.5q0 75 99 137h-29zM388 590l-201 -381h271l-68 381h-2z" />
    <glyph glyph-name="aogonek" unicode="&#x105;" 
d="M512 -119l32 -28q-53 -63 -119 -63q-40 0 -70 16.5t-30 56.5q0 75 99 137h-19l10 61h-2q-18 -29 -56.5 -52.5t-95.5 -23.5q-70 0 -121 54t-51 153q0 148 79 250.5t188 102.5q85 0 121 -63h3l9 48h83l-93 -530q-80 -72 -80 -117q0 -39 47 -39q32 0 66 37zM441 256l12 69
q11 68 -15 107t-86 39q-72 0 -127.5 -81.5t-55.5 -196.5q0 -58 28 -95t71 -37q53 0 104.5 48t68.5 147z" />
    <glyph glyph-name="Cacute" unicode="&#x106;" 
d="M494 254l86 -23q-22 -115 -89 -180.5t-171 -65.5q-108 0 -176 83t-68 215q0 192 92 312t218 120q100 0 163 -68t62 -177l-87 -7q-2 76 -35.5 125t-105.5 49q-90 0 -154.5 -101.5t-64.5 -240.5q0 -102 44.5 -165.5t115.5 -63.5q66 0 109 51.5t61 136.5zM372 765l78 121
h100l-107 -121h-71z" />
    <glyph glyph-name="cacute" unicode="&#x107;" 
d="M468 191l80 -27q-26 -85 -86 -132t-147 -47q-98 0 -158.5 63.5t-60.5 170.5q0 147 81 236.5t190 89.5q96 0 151.5 -60.5t53.5 -151.5l-81 -6q0 60 -30 102t-95 42q-75 0 -130 -68.5t-55 -179.5q0 -76 38.5 -119t98.5 -43q111 0 150 130zM338 595l78 121h100l-107 -121
h-71z" />
    <glyph glyph-name="Ccircumflex" unicode="&#x108;" 
d="M494 254l86 -23q-22 -115 -89 -180.5t-171 -65.5q-108 0 -176 83t-68 215q0 192 92 312t218 120q100 0 163 -68t62 -177l-87 -7q-2 76 -35.5 125t-105.5 49q-90 0 -154.5 -101.5t-64.5 -240.5q0 -102 44.5 -165.5t115.5 -63.5q66 0 109 51.5t61 136.5zM313 748l-41 45
l78 78h101l62 -86l-51 -37l-63 87z" />
    <glyph glyph-name="ccircumflex" unicode="&#x109;" 
d="M468 191l80 -27q-26 -85 -86 -132t-147 -47q-98 0 -158.5 63.5t-60.5 170.5q0 147 81 236.5t190 89.5q96 0 151.5 -60.5t53.5 -151.5l-81 -6q0 60 -30 102t-95 42q-75 0 -130 -68.5t-55 -179.5q0 -76 38.5 -119t98.5 -43q111 0 150 130zM306 582l-41 45l78 78h101l62 -87
l-51 -36l-63 87z" />
    <glyph glyph-name="Cdotaccent" unicode="&#x10a;" 
d="M494 254l86 -23q-22 -115 -89 -180.5t-171 -65.5q-108 0 -176 83t-68 215q0 192 92 312t218 120q100 0 163 -68t62 -177l-87 -7q-2 76 -35.5 125t-105.5 49q-90 0 -154.5 -101.5t-64.5 -240.5q0 -102 44.5 -165.5t115.5 -63.5q66 0 109 51.5t61 136.5zM356 765l16 96h97
l-17 -96h-96z" />
    <glyph glyph-name="cdotaccent" unicode="&#x10b;" 
d="M468 191l80 -27q-26 -85 -86 -132t-147 -47q-98 0 -158.5 63.5t-60.5 170.5q0 147 81 236.5t190 89.5q96 0 151.5 -60.5t53.5 -151.5l-81 -6q0 60 -30 102t-95 42q-75 0 -130 -68.5t-55 -179.5q0 -76 38.5 -119t98.5 -43q111 0 150 130zM339 608l16 96h97l-17 -96h-96z
" />
    <glyph glyph-name="Ccaron" unicode="&#x10c;" 
d="M494 254l86 -23q-22 -115 -89 -180.5t-171 -65.5q-108 0 -176 83t-68 215q0 192 92 312t218 120q100 0 163 -68t62 -177l-87 -7q-2 76 -35.5 125t-105.5 49q-90 0 -154.5 -101.5t-64.5 -240.5q0 -102 44.5 -165.5t115.5 -63.5q66 0 109 51.5t61 136.5zM357 765l-62 87
l50 36l63 -87l87 87l41 -45l-79 -78h-100z" />
    <glyph glyph-name="ccaron" unicode="&#x10d;" 
d="M468 191l80 -27q-26 -85 -86 -132t-147 -47q-98 0 -158.5 63.5t-60.5 170.5q0 147 81 236.5t190 89.5q96 0 151.5 -60.5t53.5 -151.5l-81 -6q0 60 -30 102t-95 42q-75 0 -130 -68.5t-55 -179.5q0 -76 38.5 -119t98.5 -43q111 0 150 130zM339 594l-62 87l49 36l62 -87
l87 87l43 -45l-79 -78h-100z" />
    <glyph glyph-name="Dcaron" unicode="&#x10e;" 
d="M141 77h99q126 0 202.5 91t76.5 246q0 104 -48.5 157.5t-136.5 53.5h-96zM44 0l123 700h182q114 0 187 -76t73 -208q0 -105 -29.5 -186t-80.5 -130.5t-116 -74.5t-140 -25h-199zM292 765l-62 87l50 36l63 -87l87 87l41 -45l-79 -78h-100z" />
    <glyph glyph-name="dcaron" unicode="&#x10f;" 
d="M441 175l29 163q9 51 -27.5 92t-101.5 41q-81 0 -132.5 -70.5t-51.5 -180.5q0 -67 34 -114t99 -47q59 0 100.5 34t50.5 82zM416 0l8 48h-2q-14 -21 -53.5 -42t-89.5 -21q-95 0 -150.5 63t-55.5 165q0 148 76 240t188 92q53 0 92.5 -22.5t60.5 -52.5h2l47 260h83
l-129 -730h-77zM653 579l44 151h78l-67 -151h-55z" />
    <glyph glyph-name="Dcroat" unicode="&#x110;" 
d="M64 0l58 331h-67l12 69h67l53 300h150q114 0 186 -76t72 -208q0 -105 -29 -186t-80 -130.5t-115.5 -74.5t-139.5 -25h-167zM159 77h69q126 0 202.5 91t76.5 246q0 104 -48.5 157.5t-136.5 53.5h-66l-40 -225h187l-12 -69h-187z" />
    <glyph glyph-name="dcroat" unicode="&#x111;" 
d="M410 0l8 48h-2q-14 -21 -53.5 -42t-89.5 -21q-91 0 -147.5 63.5t-56.5 164.5q0 148 75.5 240t186.5 92q54 0 93.5 -22t59.5 -53h2l31 175h-150l10 55h150l6 30h81l-6 -30h71l-10 -55h-70l-114 -645h-75zM435 175l29 163q9 51 -27.5 92t-101.5 41q-81 0 -132.5 -70.5
t-51.5 -180.5q0 -67 34 -114t99 -47q59 0 100.5 34t50.5 82z" />
    <glyph glyph-name="Emacron" unicode="&#x112;" 
d="M81 0l123 700h412l-13 -75h-328l-40 -228h300l-12 -71h-301l-44 -249h329l-14 -77h-412zM274 765l10 57h288l-10 -57h-288z" />
    <glyph glyph-name="emacron" unicode="&#x113;" 
d="M475 163l62 -51q-90 -127 -235 -127q-100 0 -162 65t-62 179q0 133 78.5 224.5t194.5 91.5q98 0 159.5 -61.5t61.5 -164.5l-5 -78h-404q-1 -9 -1 -18q0 -67 35 -115.5t106 -48.5q102 0 172 104zM171 307h319v3q0 4 0.5 9.5t0.5 9.5q0 61 -36 102t-105 41q-73 0 -121 -51
t-58 -114zM221 620l10 57h288l-10 -57h-288z" />
    <glyph glyph-name="Ebreve" unicode="&#x114;" 
d="M81 0l123 700h412l-13 -75h-328l-40 -228h300l-12 -71h-301l-44 -249h329l-14 -77h-412zM301 872h45q0 -56 69 -56q68 0 86 56h48q-10 -56 -46.5 -87.5t-90.5 -31.5q-48 0 -79.5 24.5t-33.5 67.5q0 17 2 27z" />
    <glyph glyph-name="ebreve" unicode="&#x115;" 
d="M475 163l62 -51q-90 -127 -235 -127q-100 0 -162 65t-62 179q0 133 78.5 224.5t194.5 91.5q98 0 159.5 -61.5t61.5 -164.5l-5 -78h-404q-1 -9 -1 -18q0 -67 35 -115.5t106 -48.5q102 0 172 104zM171 307h319v3q0 4 0.5 9.5t0.5 9.5q0 61 -36 102t-105 41q-73 0 -121 -51
t-58 -114zM255 704h45q0 -56 69 -56q68 0 86 56h48q-10 -56 -46.5 -87.5t-90.5 -31.5q-48 0 -79.5 24.5t-33.5 67.5q0 17 2 27z" />
    <glyph glyph-name="Edotaccent" unicode="&#x116;" 
d="M81 0l123 700h412l-13 -75h-328l-40 -228h300l-12 -71h-301l-44 -249h329l-14 -77h-412zM367 765l16 96h97l-17 -96h-96z" />
    <glyph glyph-name="edotaccent" unicode="&#x117;" 
d="M475 163l62 -51q-90 -127 -235 -127q-100 0 -162 65t-62 179q0 133 78.5 224.5t194.5 91.5q98 0 159.5 -61.5t61.5 -164.5l-5 -78h-404q-1 -9 -1 -18q0 -67 35 -115.5t106 -48.5q102 0 172 104zM171 307h319v3q0 4 0.5 9.5t0.5 9.5q0 61 -36 102t-105 41q-73 0 -121 -51
t-58 -114zM324 608l16 96h97l-17 -96h-96z" />
    <glyph glyph-name="Eogonek" unicode="&#x118;" 
d="M81 0l123 700h412l-13 -75h-328l-40 -228h300l-12 -71h-301l-44 -249h329l-14 -77h-72q-80 -72 -80 -117q0 -39 47 -39q32 0 66 37l32 -28q-53 -63 -119 -63q-40 0 -70 16.5t-30 56.5q0 75 99 137h-285z" />
    <glyph glyph-name="eogonek" unicode="&#x119;" 
d="M367 -119l32 -28q-53 -63 -119 -63q-40 0 -70 16.5t-30 56.5q0 68 81 125q-84 13 -133.5 76.5t-49.5 164.5q0 133 78.5 224.5t194.5 91.5q98 0 159.5 -61.5t61.5 -164.5l-5 -78h-404q-1 -9 -1 -18q0 -67 35 -115.5t106 -48.5q102 0 172 104l62 -51q-85 -119 -219 -126
q-64 -63 -64 -103q0 -39 47 -39q32 0 66 37zM171 307h319v3q0 4 0.5 9.5t0.5 9.5q0 61 -36 102t-105 41q-73 0 -121 -51t-58 -114z" />
    <glyph glyph-name="Ecaron" unicode="&#x11a;" 
d="M81 0l123 700h412l-13 -75h-328l-40 -228h300l-12 -71h-301l-44 -249h329l-14 -77h-412zM364 765l-62 87l50 36l63 -87l87 87l41 -45l-79 -78h-100z" />
    <glyph glyph-name="ecaron" unicode="&#x11b;" 
d="M475 163l62 -51q-90 -127 -235 -127q-100 0 -162 65t-62 179q0 133 78.5 224.5t194.5 91.5q98 0 159.5 -61.5t61.5 -164.5l-5 -78h-404q-1 -9 -1 -18q0 -67 35 -115.5t106 -48.5q102 0 172 104zM171 307h319v3q0 4 0.5 9.5t0.5 9.5q0 61 -36 102t-105 41q-73 0 -121 -51
t-58 -114zM324 594l-62 87l49 36l62 -87l87 87l43 -45l-79 -78h-100z" />
    <glyph glyph-name="Gcircumflex" unicode="&#x11c;" 
d="M377 715q97 0 159 -66.5t63 -172.5l-87 -8q-10 168 -141 168q-91 0 -155 -99t-64 -242q0 -104 43.5 -166t115.5 -62q75 0 124 54.5t63 140.5h-172l14 77h258l-10 -66q-19 -130 -94 -209t-186 -79t-178 83.5t-67 220.5q0 190 94 308t220 118zM303 748l-41 45l78 78h101
l62 -86l-51 -37l-63 87z" />
    <glyph glyph-name="gcircumflex" unicode="&#x11d;" 
d="M56 -91l73 30q15 -52 45 -78.5t87 -26.5q119 0 145 138l14 72h-2q-51 -59 -141 -59q-92 0 -150.5 63t-58.5 164q0 151 77.5 242t188.5 91q51 0 91.5 -20t62.5 -51h2l10 56h86l-93 -531q-22 -120 -78 -179.5t-161 -59.5q-79 0 -129.5 40.5t-68.5 108.5zM441 175l28 162
q9 51 -28.5 92.5t-101.5 41.5q-82 0 -134 -70t-52 -180q0 -68 35 -114.5t102 -46.5q57 0 99.5 33.5t51.5 81.5zM268 582l-41 45l78 78h101l62 -87l-51 -36l-63 87z" />
    <glyph glyph-name="Gbreve" unicode="&#x11e;" 
d="M377 715q97 0 159 -66.5t63 -172.5l-87 -8q-10 168 -141 168q-91 0 -155 -99t-64 -242q0 -104 43.5 -166t115.5 -62q75 0 124 54.5t63 140.5h-172l14 77h258l-10 -66q-19 -130 -94 -209t-186 -79t-178 83.5t-67 220.5q0 190 94 308t220 118zM282 872h45q0 -56 69 -56
q68 0 86 56h48q-10 -56 -46.5 -87.5t-90.5 -31.5q-48 0 -79.5 24.5t-33.5 67.5q0 17 2 27z" />
    <glyph glyph-name="gbreve" unicode="&#x11f;" 
d="M56 -91l73 30q15 -52 45 -78.5t87 -26.5q119 0 145 138l14 72h-2q-51 -59 -141 -59q-92 0 -150.5 63t-58.5 164q0 151 77.5 242t188.5 91q51 0 91.5 -20t62.5 -51h2l10 56h86l-93 -531q-22 -120 -78 -179.5t-161 -59.5q-79 0 -129.5 40.5t-68.5 108.5zM441 175l28 162
q9 51 -28.5 92.5t-101.5 41.5q-82 0 -134 -70t-52 -180q0 -68 35 -114.5t102 -46.5q57 0 99.5 33.5t51.5 81.5zM236 704h45q0 -56 69 -56q68 0 86 56h48q-10 -56 -46.5 -87.5t-90.5 -31.5q-48 0 -79.5 24.5t-33.5 67.5q0 17 2 27z" />
    <glyph glyph-name="Gdotaccent" unicode="&#x120;" 
d="M377 715q97 0 159 -66.5t63 -172.5l-87 -8q-10 168 -141 168q-91 0 -155 -99t-64 -242q0 -104 43.5 -166t115.5 -62q75 0 124 54.5t63 140.5h-172l14 77h258l-10 -66q-19 -130 -94 -209t-186 -79t-178 83.5t-67 220.5q0 190 94 308t220 118zM336 765l16 96h97l-17 -96
h-96z" />
    <glyph glyph-name="gdotaccent" unicode="&#x121;" 
d="M56 -91l73 30q15 -52 45 -78.5t87 -26.5q119 0 145 138l14 72h-2q-51 -59 -141 -59q-92 0 -150.5 63t-58.5 164q0 151 77.5 242t188.5 91q51 0 91.5 -20t62.5 -51h2l10 56h86l-93 -531q-22 -120 -78 -179.5t-161 -59.5q-79 0 -129.5 40.5t-68.5 108.5zM441 175l28 162
q9 51 -28.5 92.5t-101.5 41.5q-82 0 -134 -70t-52 -180q0 -68 35 -114.5t102 -46.5q57 0 99.5 33.5t51.5 81.5zM309 608l16 96h97l-17 -96h-96z" />
    <glyph glyph-name="Gcommaaccent" unicode="&#x122;" 
d="M377 715q97 0 159 -66.5t63 -172.5l-87 -8q-10 168 -141 168q-91 0 -155 -99t-64 -242q0 -104 43.5 -166t115.5 -62q75 0 124 54.5t63 140.5h-172l14 77h258l-10 -66q-19 -130 -94 -209t-186 -79t-178 83.5t-67 220.5q0 190 94 308t220 118zM224 -229l5 36q28 4 41 16
t17 34h-50l16 92h102l-14 -78q-8 -48 -35.5 -72.5t-81.5 -27.5z" />
    <glyph glyph-name="gcommaaccent" unicode="&#x123;" 
d="M56 -91l73 30q15 -52 45 -78.5t87 -26.5q119 0 145 138l14 72h-2q-51 -59 -141 -59q-92 0 -150.5 63t-58.5 164q0 151 77.5 242t188.5 91q51 0 91.5 -20t62.5 -51h2l10 56h86l-93 -531q-22 -120 -78 -179.5t-161 -59.5q-79 0 -129.5 40.5t-68.5 108.5zM441 175l28 162
q9 51 -28.5 92.5t-101.5 41.5q-82 0 -134 -70t-52 -180q0 -68 35 -114.5t102 -46.5q57 0 99.5 33.5t51.5 81.5zM307 597l11 66q8 41 32 62.5t70 24.5l-4 -25q-44 -6 -50 -47h44l-15 -81h-88z" />
    <glyph glyph-name="Hcircumflex" unicode="&#x124;" 
d="M27 0l123 700h84l-53 -301h304l53 301h84l-123 -700h-84l57 326h-303l-58 -326h-84zM308 748l-41 45l78 78h101l62 -86l-51 -37l-63 87z" />
    <glyph glyph-name="hcircumflex" unicode="&#x125;" 
d="M74 0l129 730h83l-44 -245h2q21 24 59 42t85 18q91 0 135 -58.5t28 -150.5l-59 -336h-84l58 324q27 146 -99 146q-54 0 -96.5 -35.5t-52.5 -92.5l-60 -342h-84zM337 582l-41 45l78 78h101l62 -87l-51 -36l-63 87z" />
    <glyph glyph-name="Hbar" unicode="&#x126;" 
d="M54 0l89 505h-50l13 73h50l21 122h83l-21 -122h252l21 122h83l-21 -122h50l-13 -73h-50l-89 -505h-83l57 325h-252l-57 -325h-83zM207 399h252l19 106h-252z" />
    <glyph glyph-name="hbar" unicode="&#x127;" 
d="M83 0l114 645h-67l10 55h67l5 30h82l-6 -30h139l-10 -55h-139l-28 -160h2q53 60 143 60q91 0 134 -58.5t27 -150.5l-59 -336h-81l58 324q25 146 -99 146q-54 0 -96.5 -35.5t-52.5 -92.5l-61 -342h-82z" />
    <glyph glyph-name="Itilde" unicode="&#x128;" 
d="M163 625l13 75h420l-13 -75h-168l-97 -550h168l-13 -75h-420l13 75h167l97 550h-167zM297 765h-46q33 94 103 94q28 0 60 -19t50 -19q27 0 40 33h46q-33 -94 -103 -94q-27 0 -60.5 19t-49.5 19q-27 0 -40 -33z" />
    <glyph glyph-name="itilde" unicode="&#x129;" 
d="M301 603h-46q34 93 103 93q28 0 60 -19t50 -19q27 0 40 33h46q-33 -93 -103 -93q-27 0 -60.5 18.5t-49.5 18.5q-27 0 -40 -32zM164 460l12 70h261l-81 -460h174l-12 -70h-440l12 70h183l69 390h-178z" />
    <glyph glyph-name="Imacron" unicode="&#x12a;" 
d="M163 625l13 75h420l-13 -75h-168l-97 -550h168l-13 -75h-420l13 75h167l97 550h-167zM251 765l10 57h288l-10 -57h-288z" />
    <glyph glyph-name="imacron" unicode="&#x12b;" 
d="M248 620l10 57h288l-10 -57h-288zM164 460l12 70h261l-81 -460h174l-12 -70h-440l12 70h183l69 390h-178z" />
    <glyph glyph-name="Ibreve" unicode="&#x12c;" 
d="M163 625l13 75h420l-13 -75h-168l-97 -550h168l-13 -75h-420l13 75h167l97 550h-167zM282 872h45q0 -56 69 -56q68 0 86 56h48q-10 -56 -46.5 -87.5t-90.5 -31.5q-48 0 -79.5 24.5t-33.5 67.5q0 17 2 27z" />
    <glyph glyph-name="ibreve" unicode="&#x12d;" 
d="M281 704h45q0 -56 69 -56q68 0 86 56h48q-10 -56 -46.5 -87.5t-90.5 -31.5q-48 0 -79.5 24.5t-33.5 67.5q0 17 2 27zM164 460l12 70h261l-81 -460h174l-12 -70h-440l12 70h183l69 390h-178z" />
    <glyph glyph-name="Iogonek" unicode="&#x12e;" 
d="M326 -119l32 -28q-53 -63 -119 -63q-40 0 -70 16.5t-30 56.5q0 75 99 137h-185l13 75h167l97 550h-167l13 75h420l-13 -75h-168l-97 -550h168l-13 -75h-180q-80 -72 -80 -117q0 -39 47 -39q32 0 66 37z" />
    <glyph glyph-name="iogonek" unicode="&#x12f;" 
d="M164 460l12 70h261l-81 -460h174l-12 -70h-189q-80 -72 -80 -117q0 -39 47 -39q32 0 66 37l32 -28q-53 -63 -119 -63q-40 0 -70 16.5t-30 56.5q0 75 99 137h-196l12 70h183l69 390h-178zM361 638l16 92h93l-16 -92h-93z" />
    <glyph glyph-name="Idotaccent" unicode="&#x130;" 
d="M163 625l13 75h420l-13 -75h-168l-97 -550h168l-13 -75h-420l13 75h167l97 550h-167zM344 765l16 96h97l-17 -96h-96z" />
    <glyph glyph-name="dotlessi" unicode="&#x131;" 
d="M164 460l12 70h261l-81 -460h174l-12 -70h-440l12 70h183l69 390h-178z" />
    <glyph glyph-name="Jcircumflex" unicode="&#x134;" 
d="M217 625l14 75h350l-84 -472q-43 -243 -239 -243q-92 0 -140.5 56.5t-46.5 149.5l82 6q3 -71 25.5 -102.5t84.5 -31.5t99 42t49 110l72 410h-266zM354 748l-41 45l78 78h101l62 -86l-51 -37l-63 87z" />
    <glyph glyph-name="jcircumflex" unicode="&#x135;" 
d="M178 457l12 73h287l-94 -536q-17 -98 -68 -143.5t-125 -45.5q-53 0 -94 29.5t-52 59.5l63 46q11 -17 18 -26t27.5 -22t43.5 -13q39 0 66 31.5t38 92.5l81 454h-203zM336 582l-41 45l78 78h101l62 -87l-51 -36l-63 87z" />
    <glyph glyph-name="Kcommaaccent" unicode="&#x136;" 
d="M56 0l123 700h83l-59 -337h2l338 337h109l-316 -312l216 -388h-96l-182 334h-2l-90 -94l-43 -240h-83zM205 -229l5 36q28 4 41 16t17 34h-50l16 92h102l-14 -78q-8 -48 -35.5 -72.5t-81.5 -27.5z" />
    <glyph glyph-name="kcommaaccent" unicode="&#x137;" 
d="M100 0l129 730h84l-78 -437h2l260 237h109l-236 -214l163 -316h-89l-136 268h-2l-89 -82l-33 -186h-84zM236 -229l5 36q28 4 41 16t17 34h-50l16 92h102l-14 -78q-8 -48 -35.5 -72.5t-81.5 -27.5z" />
    <glyph glyph-name="kgreenlandic" unicode="&#x138;" 
d="M94 0l94 530h81l-44 -238l265 238h106l-236 -214l163 -316h-86l-139 267l-91 -83l-33 -184h-80z" />
    <glyph glyph-name="Lacute" unicode="&#x139;" 
d="M103 0l123 700h84l-109 -626h334l-13 -74h-419zM254 765l78 121h100l-107 -121h-71z" />
    <glyph glyph-name="lacute" unicode="&#x13a;" 
d="M195 657l13 73h255l-116 -657h180l-13 -73h-440l13 73h177l103 584h-172zM393 770l78 121h100l-107 -121h-71z" />
    <glyph glyph-name="Lcommaaccent" unicode="&#x13b;" 
d="M103 0l123 700h84l-109 -626h334l-13 -74h-419zM284 -229l5 36q28 4 41 16t17 34h-50l16 92h102l-14 -78q-8 -48 -35.5 -72.5t-81.5 -27.5z" />
    <glyph glyph-name="lcommaaccent" unicode="&#x13c;" 
d="M195 657l13 73h255l-116 -657h180l-13 -73h-440l13 73h177l103 584h-172zM210 -229l5 36q28 4 41 16t17 34h-50l16 92h102l-14 -78q-8 -48 -35.5 -72.5t-81.5 -27.5z" />
    <glyph glyph-name="Lcaron" unicode="&#x13d;" 
d="M103 0l123 700h84l-109 -626h334l-13 -74h-419zM446 579l44 151h78l-67 -151h-55z" />
    <glyph glyph-name="lcaron" unicode="&#x13e;" 
d="M195 657l13 73h255l-116 -657h180l-13 -73h-440l13 73h177l103 584h-172zM555 579l44 151h78l-67 -151h-55z" />
    <glyph glyph-name="Ldot" unicode="&#x13f;" 
d="M103 0l123 700h84l-109 -626h334l-13 -74h-419zM366 320l21 116h117l-21 -116h-117z" />
    <glyph glyph-name="ldot" unicode="&#x140;" 
d="M195 657l13 73h255l-116 -657h180l-13 -73h-440l13 73h177l103 584h-172zM457 322l21 116h117l-21 -116h-117z" />
    <glyph glyph-name="Lslash" unicode="&#x141;" 
d="M148 0l59 337l-79 -55l-27 41l118 83l52 294h82l-42 -237l132 93l28 -41l-172 -120l-56 -321h305l-14 -74h-386z" />
    <glyph glyph-name="lslash" unicode="&#x142;" 
d="M195 657l13 73h255l-38 -215l85 59l27 -40l-123 -87l-1 -1l-66 -373h180l-13 -73h-440l13 73h177l56 318l-86 -59l-27 40l125 87l35 198h-172z" />
    <glyph glyph-name="Nacute" unicode="&#x143;" 
d="M37 0l123 700h90l182 -571h2l100 571h79l-123 -700h-90l-181 571h-2l-100 -571h-80zM359 765l78 121h100l-107 -121h-71z" />
    <glyph glyph-name="nacute" unicode="&#x144;" 
d="M63 0l93 530h80l-7 -48h2q23 25 63 44t88 19q86 0 134.5 -55t32.5 -145l-60 -345h-83l59 332q12 69 -17 103.5t-89 34.5q-58 0 -100 -35t-52 -93l-61 -342h-83zM361 595l78 121h100l-107 -121h-71z" />
    <glyph glyph-name="Ncommaaccent" unicode="&#x145;" 
d="M37 0l123 700h90l182 -571h2l100 571h79l-123 -700h-90l-181 571h-2l-100 -571h-80zM205 -229l5 36q28 4 41 16t17 34h-50l16 92h102l-14 -78q-8 -48 -35.5 -72.5t-81.5 -27.5z" />
    <glyph glyph-name="ncommaaccent" unicode="&#x146;" 
d="M63 0l93 530h80l-7 -48h2q23 25 63 44t88 19q86 0 134.5 -55t32.5 -145l-60 -345h-83l59 332q12 69 -17 103.5t-89 34.5q-58 0 -100 -35t-52 -93l-61 -342h-83zM200 -229l5 36q28 4 41 16t17 34h-50l16 92h102l-14 -78q-8 -48 -35.5 -72.5t-81.5 -27.5z" />
    <glyph glyph-name="Ncaron" unicode="&#x147;" 
d="M37 0l123 700h90l182 -571h2l100 571h79l-123 -700h-90l-181 571h-2l-100 -571h-80zM342 765l-62 87l50 36l63 -87l87 87l41 -45l-79 -78h-100z" />
    <glyph glyph-name="ncaron" unicode="&#x148;" 
d="M63 0l93 530h80l-7 -48h2q23 25 63 44t88 19q86 0 134.5 -55t32.5 -145l-60 -345h-83l59 332q12 69 -17 103.5t-89 34.5q-58 0 -100 -35t-52 -93l-61 -342h-83zM340 594l-62 87l49 36l62 -87l87 87l43 -45l-79 -78h-100z" />
    <glyph glyph-name="Eng" unicode="&#x14a;" 
d="M19 0l123 700h71l239 -544h2l95 544h82l-135 -771q-12 -67 -47 -97.5t-98 -30.5h-36l15 81h33q27 0 40.5 13t20.5 49l12 64l-238 536h-2l-96 -544h-81z" />
    <glyph glyph-name="eng" unicode="&#x14b;" 
d="M320 -202l14 81h18q28 0 38.5 9.5t15.5 36.5l72 407q13 70 -15.5 104t-92.5 34q-58 0 -100 -35t-52 -93l-60 -342h-82l93 530h79l-8 -47h2q22 25 62.5 43.5t86.5 18.5q91 0 137 -55t30 -149l-76 -431q-20 -112 -126 -112h-36z" />
    <glyph glyph-name="Omacron" unicode="&#x14c;" 
d="M294 66q91 0 155.5 96.5t64.5 244.5q0 106 -40.5 168t-113.5 62q-92 0 -158 -98t-66 -246q0 -106 41 -166.5t117 -60.5zM293 -15q-112 0 -178.5 82t-66.5 221q0 100 27.5 183t73 135t101 80.5t113.5 28.5q108 0 174 -83.5t66 -219.5q0 -100 -27.5 -183t-72.5 -135
t-99.5 -80.5t-110.5 -28.5zM225 765l10 57h288l-10 -57h-288z" />
    <glyph glyph-name="omacron" unicode="&#x14d;" 
d="M298 59q80 0 135 64.5t55 178.5q0 74 -37 121.5t-101 47.5q-80 0 -135 -64.5t-55 -178.5q0 -74 37 -121.5t101 -47.5zM299 -15q-99 0 -160 68.5t-61 175.5q0 143 79.5 229.5t192.5 86.5q100 0 160.5 -68t60.5 -176q0 -143 -79.5 -229.5t-192.5 -86.5zM217 620l10 57h288
l-10 -57h-288z" />
    <glyph glyph-name="Obreve" unicode="&#x14e;" 
d="M294 66q91 0 155.5 96.5t64.5 244.5q0 106 -40.5 168t-113.5 62q-92 0 -158 -98t-66 -246q0 -106 41 -166.5t117 -60.5zM293 -15q-112 0 -178.5 82t-66.5 221q0 100 27.5 183t73 135t101 80.5t113.5 28.5q108 0 174 -83.5t66 -219.5q0 -100 -27.5 -183t-72.5 -135
t-99.5 -80.5t-110.5 -28.5zM262 872h45q0 -56 69 -56q68 0 86 56h48q-10 -56 -46.5 -87.5t-90.5 -31.5q-48 0 -79.5 24.5t-33.5 67.5q0 17 2 27z" />
    <glyph glyph-name="obreve" unicode="&#x14f;" 
d="M298 59q80 0 135 64.5t55 178.5q0 74 -37 121.5t-101 47.5q-80 0 -135 -64.5t-55 -178.5q0 -74 37 -121.5t101 -47.5zM299 -15q-99 0 -160 68.5t-61 175.5q0 143 79.5 229.5t192.5 86.5q100 0 160.5 -68t60.5 -176q0 -143 -79.5 -229.5t-192.5 -86.5zM260 704h45
q0 -56 69 -56q68 0 86 56h48q-10 -56 -46.5 -87.5t-90.5 -31.5q-48 0 -79.5 24.5t-33.5 67.5q0 17 2 27z" />
    <glyph glyph-name="Ohungarumlaut" unicode="&#x150;" 
d="M294 66q91 0 155.5 96.5t64.5 244.5q0 106 -40.5 168t-113.5 62q-92 0 -158 -98t-66 -246q0 -106 41 -166.5t117 -60.5zM293 -15q-112 0 -178.5 82t-66.5 221q0 100 27.5 183t73 135t101 80.5t113.5 28.5q108 0 174 -83.5t66 -219.5q0 -100 -27.5 -183t-72.5 -135
t-99.5 -80.5t-110.5 -28.5zM275 765l75 115h91l-104 -115h-62zM411 765l75 115h91l-104 -115h-62z" />
    <glyph glyph-name="ohungarumlaut" unicode="&#x151;" 
d="M298 59q80 0 135 64.5t55 178.5q0 74 -37 121.5t-101 47.5q-80 0 -135 -64.5t-55 -178.5q0 -74 37 -121.5t101 -47.5zM299 -15q-99 0 -160 68.5t-61 175.5q0 143 79.5 229.5t192.5 86.5q100 0 160.5 -68t60.5 -176q0 -143 -79.5 -229.5t-192.5 -86.5zM263 599l75 115h91
l-104 -115h-62zM399 599l75 115h91l-104 -115h-62z" />
    <glyph glyph-name="OE" unicode="&#x152;" 
d="M291 0l8 47h-2q-39 -62 -106 -62q-45 0 -78 36.5t-48 119t10 215.5q30 170 101 264.5t144 94.5q35 0 57 -18t27 -44h2l8 47h243l-13 -76h-156l-39 -219h128l-13 -73h-128l-45 -256h156l-13 -76h-243zM317 146l71 407q-2 35 -18.5 57.5t-46.5 22.5q-51 0 -93 -68.5
t-66 -208.5q-21 -110 -15 -174.5t24.5 -90t49.5 -25.5q60 0 94 80z" />
    <glyph glyph-name="oe" unicode="&#x153;" 
d="M413 -15q-45 0 -76.5 30t-37.5 79h-2q-22 -50 -59.5 -79.5t-77.5 -29.5q-57 0 -89 46t-32 132q0 149 60 265.5t144 116.5q42 0 71.5 -32t34.5 -81h2q55 113 138 113q49 0 80 -47t31 -134q0 -27 -3 -57.5t-5 -48.5l-3 -17h-227q-1 -7 -1 -59q0 -54 15.5 -88.5t43.5 -34.5
q42 0 81 106l66 -27q-54 -153 -154 -153zM165 59q49 0 87 91.5t38 214.5q0 50 -14.5 78t-37.5 28q-48 0 -87 -96t-39 -218q0 -98 53 -98zM373 307h153q5 25 5 63q0 43 -13.5 72.5t-36.5 29.5q-37 0 -68 -52t-40 -113z" />
    <glyph glyph-name="Racute" unicode="&#x154;" 
d="M53 0l123 700h218q96 0 151.5 -48t55.5 -133q0 -94 -57 -155t-156 -79l109 -285h-90l-104 279h-118l-49 -279h-83zM199 353h126q85 0 137 43.5t52 120.5q0 53 -35 80.5t-98 27.5h-134zM327 765l78 121h100l-107 -121h-71z" />
    <glyph glyph-name="racute" unicode="&#x155;" 
d="M124 0l93 530h80l-13 -77h2q24 36 70.5 61t95.5 25q62 0 103 -36t48 -105l-89 -20q-14 78 -90 78q-59 0 -105 -44t-59 -117l-52 -295h-84zM361 595l78 121h100l-107 -121h-71z" />
    <glyph glyph-name="Rcommaaccent" unicode="&#x156;" 
d="M53 0l123 700h218q96 0 151.5 -48t55.5 -133q0 -94 -57 -155t-156 -79l109 -285h-90l-104 279h-118l-49 -279h-83zM199 353h126q85 0 137 43.5t52 120.5q0 53 -35 80.5t-98 27.5h-134zM192 -229l5 36q28 4 41 16t17 34h-50l16 92h102l-14 -78q-8 -48 -35.5 -72.5
t-81.5 -27.5z" />
    <glyph glyph-name="rcommaaccent" unicode="&#x157;" 
d="M124 0l93 530h80l-13 -77h2q24 36 70.5 61t95.5 25q62 0 103 -36t48 -105l-89 -20q-14 78 -90 78q-59 0 -105 -44t-59 -117l-52 -295h-84zM80 -229l5 36q28 4 41 16t17 34h-50l16 92h102l-14 -78q-8 -48 -35.5 -72.5t-81.5 -27.5z" />
    <glyph glyph-name="Rcaron" unicode="&#x158;" 
d="M53 0l123 700h218q96 0 151.5 -48t55.5 -133q0 -94 -57 -155t-156 -79l109 -285h-90l-104 279h-118l-49 -279h-83zM199 353h126q85 0 137 43.5t52 120.5q0 53 -35 80.5t-98 27.5h-134zM313 765l-62 87l50 36l63 -87l87 87l41 -45l-79 -78h-100z" />
    <glyph glyph-name="rcaron" unicode="&#x159;" 
d="M124 0l93 530h80l-13 -77h2q24 36 70.5 61t95.5 25q62 0 103 -36t48 -105l-89 -20q-14 78 -90 78q-59 0 -105 -44t-59 -117l-52 -295h-84zM367 594l-62 87l49 36l62 -87l87 87l43 -45l-79 -78h-100z" />
    <glyph glyph-name="Sacute" unicode="&#x15a;" 
d="M60 250l88 10q2 -96 41 -146t127 -50q67 0 115 42t48 103q0 37 -28.5 65.5t-114.5 60.5q-115 43 -160.5 82.5t-45.5 106.5q0 77 63.5 134t169.5 57q97 0 162 -55t67 -147l-86 -10q-4 60 -40 97.5t-106 37.5q-64 0 -103.5 -33t-39.5 -79q0 -35 29 -57.5t136 -64.5
q101 -40 142 -83t41 -109q0 -95 -70 -161t-183 -66q-119 0 -185 68.5t-67 196.5zM337 765l78 121h100l-107 -121h-71z" />
    <glyph glyph-name="sacute" unicode="&#x15b;" 
d="M87 182l79 12q16 -136 155 -136q74 0 113.5 29t39.5 71q0 22 -8.5 35t-41.5 27.5t-100 31.5q-108 27 -150 56t-42 84q0 62 55.5 107.5t155.5 45.5t156.5 -47t63.5 -117l-76 -14q-18 108 -144 108q-65 0 -99 -24.5t-34 -56.5q0 -27 25 -39.5t120 -38.5q87 -23 130.5 -46.5
t54.5 -45.5t11 -59q0 -74 -59.5 -127t-167.5 -53q-110 0 -172 56t-65 141zM328 595l78 121h100l-107 -121h-71z" />
    <glyph glyph-name="Scircumflex" unicode="&#x15c;" 
d="M60 250l88 10q2 -96 41 -146t127 -50q67 0 115 42t48 103q0 37 -28.5 65.5t-114.5 60.5q-115 43 -160.5 82.5t-45.5 106.5q0 77 63.5 134t169.5 57q97 0 162 -55t67 -147l-86 -10q-4 60 -40 97.5t-106 37.5q-64 0 -103.5 -33t-39.5 -79q0 -35 29 -57.5t136 -64.5
q101 -40 142 -83t41 -109q0 -95 -70 -161t-183 -66q-119 0 -185 68.5t-67 196.5zM293 748l-41 45l78 78h101l62 -86l-51 -37l-63 87z" />
    <glyph glyph-name="scircumflex" unicode="&#x15d;" 
d="M87 182l79 12q16 -136 155 -136q74 0 113.5 29t39.5 71q0 22 -8.5 35t-41.5 27.5t-100 31.5q-108 27 -150 56t-42 84q0 62 55.5 107.5t155.5 45.5t156.5 -47t63.5 -117l-76 -14q-18 108 -144 108q-65 0 -99 -24.5t-34 -56.5q0 -27 25 -39.5t120 -38.5q87 -23 130.5 -46.5
t54.5 -45.5t11 -59q0 -74 -59.5 -127t-167.5 -53q-110 0 -172 56t-65 141zM276 582l-41 45l78 78h101l62 -87l-51 -36l-63 87z" />
    <glyph glyph-name="Scedilla" unicode="&#x15e;" 
d="M216 -172l31 40q32 -29 73 -29q58 0 58 43q0 18 -16 27.5t-38 9.5q-14 0 -27.5 -4.5t-19.5 -8.5l-6 -4l-34 18l39 67q-102 10 -158.5 77.5t-57.5 185.5l88 10q2 -96 41 -146t127 -50q67 0 115 42t48 103q0 37 -28.5 65.5t-114.5 60.5q-115 43 -160.5 82.5t-45.5 106.5
q0 77 63.5 134t169.5 57q97 0 162 -55t67 -147l-86 -10q-4 60 -40 97.5t-106 37.5q-64 0 -103.5 -33t-39.5 -79q0 -35 29 -57.5t136 -64.5q101 -40 142 -83t41 -109q0 -93 -67 -158.5t-177 -68.5l-27 -43v-1q21 15 52 15q34 0 61 -19.5t27 -55.5q0 -45 -30.5 -69.5
t-78.5 -24.5q-68 0 -109 41z" />
    <glyph glyph-name="scedilla" unicode="&#x15f;" 
d="M245 -172l31 40q32 -29 73 -29q58 0 58 43q0 18 -16 27.5t-38 9.5q-14 0 -27.5 -4.5t-19.5 -8.5l-6 -4l-34 18l38 66q-101 5 -157.5 59.5t-59.5 136.5l79 12q16 -136 155 -136q74 0 113.5 29t39.5 71q0 22 -8.5 35t-41.5 27.5t-100 31.5q-108 27 -150 56t-42 84
q0 62 55.5 107.5t155.5 45.5t156.5 -47t63.5 -117l-76 -14q-18 108 -144 108q-65 0 -99 -24.5t-34 -56.5q0 -27 25 -39.5t120 -38.5q87 -23 130.5 -46.5t54.5 -45.5t11 -59q0 -70 -52 -121t-148 -58l-28 -44v-1q21 15 52 15q34 0 61 -19.5t27 -55.5q0 -45 -30.5 -69.5
t-78.5 -24.5q-68 0 -109 41z" />
    <glyph glyph-name="Scaron" unicode="&#x160;" 
d="M60 250l88 10q2 -96 41 -146t127 -50q67 0 115 42t48 103q0 37 -28.5 65.5t-114.5 60.5q-115 43 -160.5 82.5t-45.5 106.5q0 77 63.5 134t169.5 57q97 0 162 -55t67 -147l-86 -10q-4 60 -40 97.5t-106 37.5q-64 0 -103.5 -33t-39.5 -79q0 -35 29 -57.5t136 -64.5
q101 -40 142 -83t41 -109q0 -95 -70 -161t-183 -66q-119 0 -185 68.5t-67 196.5zM328 765l-62 87l50 36l63 -87l87 87l41 -45l-79 -78h-100z" />
    <glyph glyph-name="scaron" unicode="&#x161;" 
d="M87 182l79 12q16 -136 155 -136q74 0 113.5 29t39.5 71q0 22 -8.5 35t-41.5 27.5t-100 31.5q-108 27 -150 56t-42 84q0 62 55.5 107.5t155.5 45.5t156.5 -47t63.5 -117l-76 -14q-18 108 -144 108q-65 0 -99 -24.5t-34 -56.5q0 -27 25 -39.5t120 -38.5q87 -23 130.5 -46.5
t54.5 -45.5t11 -59q0 -74 -59.5 -127t-167.5 -53q-110 0 -172 56t-65 141zM317 594l-62 87l49 36l62 -87l87 87l43 -45l-79 -78h-100z" />
    <glyph glyph-name="Tcommaaccent" unicode="&#x162;" 
d="M224 0l110 625h-233l12 75h553l-13 -75h-231l-110 -625h-88zM181 -229l5 36q28 4 41 16t17 34h-50l16 92h102l-14 -78q-8 -48 -35.5 -72.5t-81.5 -27.5z" />
    <glyph glyph-name="tcommaaccent" unicode="&#x163;" 
d="M373 0q-75 0 -105.5 24.5t-30.5 77.5q0 34 8 79l50 279h-168l11 70h171l26 130h78l-23 -130h191l-12 -70h-191l-43 -242q-12 -69 -12 -92q0 -26 14.5 -36.5t49.5 -10.5h59l-14 -79h-59zM184 -229l5 36q28 4 41 16t17 34h-50l16 92h102l-14 -78q-8 -48 -35.5 -72.5
t-81.5 -27.5z" />
    <glyph glyph-name="Tcaron" unicode="&#x164;" 
d="M224 0l110 625h-233l12 75h553l-13 -75h-231l-110 -625h-88zM348 765l-62 87l50 36l63 -87l87 87l41 -45l-79 -78h-100z" />
    <glyph glyph-name="tcaron" unicode="&#x165;" 
d="M373 0q-75 0 -105.5 24.5t-30.5 77.5q0 34 8 79l50 279h-168l11 70h171l26 130h78l-23 -130h191l-12 -70h-191l-43 -242q-12 -69 -12 -92q0 -26 14.5 -36.5t49.5 -10.5h59l-14 -79h-59zM498 579l44 151h78l-67 -151h-55z" />
    <glyph glyph-name="Tbar" unicode="&#x166;" 
d="M225 0l60 340h-141l10 56h140l41 229h-224l12 75h528l-13 -75h-217l-41 -229h141l-9 -56h-141l-60 -340h-86z" />
    <glyph glyph-name="tbar" unicode="&#x167;" 
d="M373 0q-75 0 -105.5 24.5t-30.5 77.5q0 34 8 79l16 92h-167l11 65h168l22 122h-168l11 70h171l26 130h78l-23 -130h191l-12 -70h-191l-22 -122h191l-11 -65h-191l-10 -55q-12 -69 -12 -92q0 -26 14.5 -36.5t49.5 -10.5h59l-14 -79h-59z" />
    <glyph glyph-name="Utilde" unicode="&#x168;" 
d="M60 224l84 476h86l-82 -466q-14 -84 21.5 -127t116.5 -43q82 0 131 44.5t64 125.5l82 466h86l-85 -485q-20 -110 -93 -170t-191 -60q-116 0 -177.5 65t-42.5 174zM308 765h-46q33 94 103 94q28 0 60 -19t50 -19q27 0 40 33h46q-33 -94 -103 -94q-27 0 -60.5 19t-49.5 19
q-27 0 -40 -33z" />
    <glyph glyph-name="utilde" unicode="&#x169;" 
d="M93 184l60 346h84l-60 -343q-22 -126 105 -126q126 0 151 136l58 333h84l-93 -530h-83l9 51h-2q-6 -9 -19 -21t-49 -28.5t-78 -16.5q-87 0 -136 49t-31 150zM277 603h-46q34 93 103 93q28 0 60 -19t50 -19q27 0 40 33h46q-33 -93 -103 -93q-27 0 -60.5 18.5t-49.5 18.5
q-27 0 -40 -32z" />
    <glyph glyph-name="Umacron" unicode="&#x16a;" 
d="M60 224l84 476h86l-82 -466q-14 -84 21.5 -127t116.5 -43q82 0 131 44.5t64 125.5l82 466h86l-85 -485q-20 -110 -93 -170t-191 -60q-116 0 -177.5 65t-42.5 174zM257 765l10 57h288l-10 -57h-288z" />
    <glyph glyph-name="umacron" unicode="&#x16b;" 
d="M93 184l60 346h84l-60 -343q-22 -126 105 -126q126 0 151 136l58 333h84l-93 -530h-83l9 51h-2q-6 -9 -19 -21t-49 -28.5t-78 -16.5q-87 0 -136 49t-31 150zM230 620l10 57h288l-10 -57h-288z" />
    <glyph glyph-name="Ubreve" unicode="&#x16c;" 
d="M60 224l84 476h86l-82 -466q-14 -84 21.5 -127t116.5 -43q82 0 131 44.5t64 125.5l82 466h86l-85 -485q-20 -110 -93 -170t-191 -60q-116 0 -177.5 65t-42.5 174zM294 872h45q0 -56 69 -56q68 0 86 56h48q-10 -56 -46.5 -87.5t-90.5 -31.5q-48 0 -79.5 24.5t-33.5 67.5
q0 17 2 27z" />
    <glyph glyph-name="ubreve" unicode="&#x16d;" 
d="M93 184l60 346h84l-60 -343q-22 -126 105 -126q126 0 151 136l58 333h84l-93 -530h-83l9 51h-2q-6 -9 -19 -21t-49 -28.5t-78 -16.5q-87 0 -136 49t-31 150zM251 704h45q0 -56 69 -56q68 0 86 56h48q-10 -56 -46.5 -87.5t-90.5 -31.5q-48 0 -79.5 24.5t-33.5 67.5
q0 17 2 27z" />
    <glyph glyph-name="Uring" unicode="&#x16e;" 
d="M60 224l84 476h86l-82 -466q-14 -84 21.5 -127t116.5 -43q82 0 131 44.5t64 125.5l82 466h86l-85 -485q-20 -110 -93 -170t-191 -60q-116 0 -177.5 65t-42.5 174zM397 685q-39 0 -64.5 25.5t-25.5 62.5q0 49 30.5 82t77.5 33q39 0 64.5 -25.5t25.5 -62.5q0 -50 -30 -82.5
t-78 -32.5zM399 729q22 0 38.5 19t16.5 51q0 22 -12 33.5t-29 11.5q-23 0 -39 -18.5t-16 -51.5q0 -21 12.5 -33t28.5 -12z" />
    <glyph glyph-name="uring" unicode="&#x16f;" 
d="M93 184l60 346h84l-60 -343q-22 -126 105 -126q126 0 151 136l58 333h84l-93 -530h-83l9 51h-2q-6 -9 -19 -21t-49 -28.5t-78 -16.5q-87 0 -136 49t-31 150zM361 523q-39 0 -64.5 25.5t-25.5 63.5q0 49 30.5 82t77.5 33q39 0 64.5 -26t25.5 -63q0 -50 -30 -82.5
t-78 -32.5zM363 567q22 0 38.5 19t16.5 51q0 22 -12 33.5t-29 11.5q-23 0 -39 -18.5t-16 -51.5q0 -21 12.5 -33t28.5 -12z" />
    <glyph glyph-name="Uhungarumlaut" unicode="&#x170;" 
d="M60 224l84 476h86l-82 -466q-14 -84 21.5 -127t116.5 -43q82 0 131 44.5t64 125.5l82 466h86l-85 -485q-20 -110 -93 -170t-191 -60q-116 0 -177.5 65t-42.5 174zM300 765l75 115h91l-104 -115h-62zM436 765l75 115h91l-104 -115h-62z" />
    <glyph glyph-name="uhungarumlaut" unicode="&#x171;" 
d="M93 184l60 346h84l-60 -343q-22 -126 105 -126q126 0 151 136l58 333h84l-93 -530h-83l9 51h-2q-6 -9 -19 -21t-49 -28.5t-78 -16.5q-87 0 -136 49t-31 150zM272 611l75 115h91l-104 -115h-62zM408 611l75 115h91l-104 -115h-62z" />
    <glyph glyph-name="Uogonek" unicode="&#x172;" 
d="M361 -119l32 -28q-53 -63 -119 -63q-40 0 -70 16.5t-30 56.5q0 67 78 123q-104 8 -157 72t-35 166l84 476h86l-82 -466q-14 -84 21.5 -127t116.5 -43q82 0 131 44.5t64 125.5l82 466h86l-85 -485q-18 -102 -82.5 -161t-168.5 -67q-65 -62 -65 -104q0 -39 47 -39
q32 0 66 37z" />
    <glyph glyph-name="uogonek" unicode="&#x173;" 
d="M515 -119l32 -28q-53 -63 -119 -63q-40 0 -70 16.5t-30 56.5q0 75 99 137h-28l9 51h-2q-6 -9 -19 -21t-49 -28.5t-78 -16.5q-87 0 -136 49t-31 150l60 346h84l-60 -343q-22 -126 105 -126q126 0 151 136l58 333h84l-93 -530q-80 -72 -80 -117q0 -39 47 -39q32 0 66 37z
" />
    <glyph glyph-name="Wcircumflex" unicode="&#x174;" 
d="M84 0l44 700h85l-47 -578h2l172 408h53l29 -408h2l155 578h85l-202 -700h-97l-26 370h-2l-155 -370h-98zM332 748l-41 45l78 78h101l62 -86l-51 -37l-63 87z" />
    <glyph glyph-name="wcircumflex" unicode="&#x175;" 
d="M124 0l6 530h79l-15 -399h2l111 229h74l29 -229h2l135 399h82l-190 -530h-74l-35 263h-2l-127 -263h-77zM310 582l-41 45l78 78h101l62 -87l-51 -36l-63 87z" />
    <glyph glyph-name="Ycircumflex" unicode="&#x176;" 
d="M219 0l52 295l-159 405h91l121 -325h2l233 325h101l-301 -405l-52 -295h-88zM312 748l-41 45l78 78h101l62 -86l-51 -37l-63 87z" />
    <glyph glyph-name="ycircumflex" unicode="&#x177;" 
d="M106 -225l148 267l-118 488h84l90 -387h2l205 387h94l-418 -755h-87zM307 582l-41 45l78 78h101l62 -87l-51 -36l-63 87z" />
    <glyph glyph-name="Ydieresis" unicode="&#x178;" 
d="M219 0l52 295l-159 405h91l121 -325h2l233 325h101l-301 -405l-52 -295h-88zM234 765l16 91h91l-17 -91h-90zM426 765l16 91h91l-16 -91h-91z" />
    <glyph glyph-name="Zacute" unicode="&#x179;" 
d="M13 0l11 67l491 556v3h-369l13 74h480l-11 -67l-491 -551v-2h392l-15 -80h-501zM358 765l78 121h100l-107 -121h-71z" />
    <glyph glyph-name="zacute" unicode="&#x17a;" 
d="M55 0l11 63l403 393v2h-314l11 72h430l-11 -62l-398 -389v-2h328l-15 -78zM329 595l78 121h100l-107 -121h-71z" />
    <glyph glyph-name="Zdotaccent" unicode="&#x17b;" 
d="M13 0l11 67l491 556v3h-369l13 74h480l-11 -67l-491 -551v-2h392l-15 -80h-501zM356 765l16 96h97l-17 -96h-96z" />
    <glyph glyph-name="zdotaccent" unicode="&#x17c;" 
d="M55 0l11 63l403 393v2h-314l11 72h430l-11 -62l-398 -389v-2h328l-15 -78zM341 608l16 96h97l-17 -96h-96z" />
    <glyph glyph-name="Zcaron" unicode="&#x17d;" 
d="M13 0l11 67l491 556v3h-369l13 74h480l-11 -67l-491 -551v-2h392l-15 -80h-501zM355 765l-62 87l50 36l63 -87l87 87l41 -45l-79 -78h-100z" />
    <glyph glyph-name="zcaron" unicode="&#x17e;" 
d="M55 0l11 63l403 393v2h-314l11 72h430l-11 -62l-398 -389v-2h328l-15 -78zM338 594l-62 87l49 36l62 -87l87 87l43 -45l-79 -78h-100z" />
    <glyph glyph-name="longs" unicode="&#x17f;" 
d="M219 0l81 458h-160l12 72h161l11 60q11 61 44 85.5t91 24.5h127l-14 -74h-111q-30 0 -42.5 -12t-19.5 -50l-99 -564h-81z" />
    <glyph glyph-name="florin" unicode="&#x192;" 
d="M188 -173l100 572h-98l11 66h98l25 132q29 148 141 148q66 0 116 -57l-48 -55q-30 36 -62 36q-28 0 -45 -18t-26 -67l-21 -119h143l-11 -66h-143l-100 -572h-80z" />
    <glyph glyph-name="Aringacute" unicode="&#x1fa;" 
d="M496 0l-26 141h-318l-74 -141h-89l373 697q-43 25 -43 76q0 49 29.5 81.5t75.5 33.5l54 83h100l-92 -104q31 -26 31 -67q0 -37 -17.5 -66t-47.5 -41l128 -693h-84zM388 590l-201 -381h271l-68 381h-2zM411 729q22 0 38.5 19t16.5 51q0 22 -12 33.5t-29 11.5
q-23 0 -39 -18.5t-16 -51.5q0 -21 12.5 -33t28.5 -12z" />
    <glyph glyph-name="aringacute" unicode="&#x1fb;" 
d="M479 0h-74l10 61h-2q-18 -29 -56.5 -52.5t-95.5 -23.5q-70 0 -121 54t-51 153q0 128 61.5 225t153.5 121q-38 25 -38 74q0 47 28.5 80t72.5 35l56 86h100l-93 -105q34 -28 34 -70q0 -72 -54 -102q44 -16 67 -54h3l9 48h83zM441 256l12 69q11 68 -15 107t-86 39
q-72 0 -127.5 -81.5t-55.5 -196.5q0 -58 28 -95t71 -37q53 0 104.5 48t68.5 147zM358 567q22 0 38.5 19t16.5 51q0 22 -12 33.5t-29 11.5q-23 0 -39 -18.5t-16 -51.5q0 -21 12.5 -33t28.5 -12z" />
    <glyph glyph-name="AEacute" unicode="&#x1fc;" 
d="M-19 0l385 700h301l-13 -76h-169l-40 -227h141l-13 -73h-141l-44 -248h169l-13 -76h-248l26 149h-176l-81 -149h-84zM184 221h151l79 416h-2zM391 765l78 121h100l-107 -121h-71z" />
    <glyph glyph-name="aeacute" unicode="&#x1fd;" 
d="M175 302q27 11 41 17.5t35 20.5t31 32.5t10 41.5q0 26 -14 42.5t-39 16.5q-32 0 -57.5 -28t-39.5 -75l-66 21q18 68 65 111t100 43q43 0 72.5 -23.5t36.5 -59.5h3q22 34 57 58.5t78 24.5q56 0 87.5 -46.5t31.5 -131.5q0 -24 -3.5 -55.5t-6.5 -51.5l-3 -19h-251
q-5 -33 -5 -58q0 -55 19 -89.5t58 -34.5q54 0 100 112l65 -30q-62 -156 -170 -156q-100 0 -127 105h-3q-29 -49 -64.5 -77t-88.5 -28q-50 0 -80 32t-30 84q0 139 158 201zM357 307h174q7 34 7 67q0 98 -61 98q-44 0 -77 -53.5t-43 -111.5zM181 235q-87 -44 -87 -127
q0 -22 14.5 -36t38.5 -14q37 0 68.5 37.5t40.5 84.5l22 118h-2q-7 -18 -95 -63zM219 595l78 121h100l-107 -121h-71z" />
    <glyph glyph-name="Oslashacute" unicode="&#x1fe;" 
d="M293 -15q-99 0 -162 63l-30 -41l-39 27l38 52q-52 78 -52 202q0 100 27.5 183t73 135t101 80.5t113.5 28.5q91 0 155 -62l29 40l37 -27l-36 -49q55 -82 55 -205q0 -100 -27.5 -183t-72.5 -135t-99.5 -80.5t-110.5 -28.5zM294 66q91 0 155.5 96.5t64.5 244.5q0 76 -22 133
l-309 -421q41 -53 111 -53zM136 293q0 -76 21 -130l310 421q-41 53 -107 53q-92 0 -158 -98t-66 -246zM348 765l78 121h100l-107 -121h-71z" />
    <glyph glyph-name="oslashacute" unicode="&#x1ff;" 
d="M325 595l78 121h100l-107 -121h-71zM73 45l43 42q-38 60 -38 142q0 143 79 229.5t191 86.5q99 0 160 -71l40 38l28 -30l-44 -42q35 -62 35 -139q0 -143 -78.5 -229.5t-190.5 -86.5q-98 0 -157 69l-39 -38zM173 146l280 271q-38 54 -105 54q-80 0 -135 -64.5t-55 -178.5
q0 -48 15 -82zM474 380l-279 -269q37 -52 102 -52q80 0 135 64.5t55 178.5q0 43 -13 78z" />
    <glyph glyph-name="Scommaaccent" unicode="&#x218;" 
d="M60 250l88 10q2 -96 41 -146t127 -50q67 0 115 42t48 103q0 37 -28.5 65.5t-114.5 60.5q-115 43 -160.5 82.5t-45.5 106.5q0 77 63.5 134t169.5 57q97 0 162 -55t67 -147l-86 -10q-4 60 -40 97.5t-106 37.5q-64 0 -103.5 -33t-39.5 -79q0 -35 29 -57.5t136 -64.5
q101 -40 142 -83t41 -109q0 -95 -70 -161t-183 -66q-119 0 -185 68.5t-67 196.5zM235 -229l5 36q28 4 41 16t17 34h-50l16 92h102l-14 -78q-8 -48 -35.5 -72.5t-81.5 -27.5z" />
    <glyph glyph-name="scommaaccent" unicode="&#x219;" 
d="M87 182l79 12q16 -136 155 -136q74 0 113.5 29t39.5 71q0 22 -8.5 35t-41.5 27.5t-100 31.5q-108 27 -150 56t-42 84q0 62 55.5 107.5t155.5 45.5t156.5 -47t63.5 -117l-76 -14q-18 108 -144 108q-65 0 -99 -24.5t-34 -56.5q0 -27 25 -39.5t120 -38.5q87 -23 130.5 -46.5
t54.5 -45.5t11 -59q0 -74 -59.5 -127t-167.5 -53q-110 0 -172 56t-65 141zM239 -229l5 36q28 4 41 16t17 34h-50l16 92h102l-14 -78q-8 -48 -35.5 -72.5t-81.5 -27.5z" />
    <glyph glyph-name="dotlessj" unicode="&#x237;" 
d="M178 457l12 73h287l-94 -536q-17 -98 -68 -143.5t-125 -45.5q-53 0 -94 29.5t-52 59.5l63 46q11 -17 18 -26t27.5 -22t43.5 -13q39 0 66 31.5t38 92.5l81 454h-203z" />
    <glyph glyph-name="circumflex" unicode="&#x2c6;" 
d="M245 582l-41 45l78 78h101l62 -87l-51 -36l-63 87z" />
    <glyph glyph-name="caron" unicode="&#x2c7;" 
d="M266 594l-62 87l49 36l62 -87l87 87l43 -45l-79 -78h-100z" />
    <glyph glyph-name="breve" unicode="&#x2d8;" 
d="M202 704h45q0 -56 69 -56q68 0 86 56h48q-10 -56 -46.5 -87.5t-90.5 -31.5q-48 0 -79.5 24.5t-33.5 67.5q0 17 2 27z" />
    <glyph glyph-name="dotaccent" unicode="&#x2d9;" 
d="M268 608l16 96h97l-17 -96h-96z" />
    <glyph glyph-name="ring" unicode="&#x2da;" 
d="M316 523q-39 0 -64.5 25.5t-25.5 63.5q0 49 30.5 82t77.5 33q39 0 64.5 -26t25.5 -63q0 -50 -30 -82.5t-78 -32.5zM318 567q22 0 38.5 19t16.5 51q0 22 -12 33.5t-29 11.5q-23 0 -39 -18.5t-16 -51.5q0 -21 12.5 -33t28.5 -12z" />
    <glyph glyph-name="ogonek" unicode="&#x2db;" 
d="M402 -119l32 -28q-53 -63 -119 -63q-40 0 -70 16.5t-30 56.5q0 75 99 137h55q-80 -72 -80 -117q0 -39 47 -39q32 0 66 37z" />
    <glyph glyph-name="tilde" unicode="&#x2dc;" 
d="M221 603h-46q34 93 103 93q28 0 60 -19t50 -19q27 0 40 33h46q-33 -93 -103 -93q-27 0 -60.5 18.5t-49.5 18.5q-27 0 -40 -32z" />
    <glyph glyph-name="hungarumlaut" unicode="&#x2dd;" 
d="M174 595l75 115h91l-104 -115h-62zM310 595l75 115h91l-104 -115h-62z" />
    <glyph glyph-name="uni0312" unicode="&#x312;" 
d="M268 597l11 66q8 41 32 62.5t70 24.5l-4 -25q-44 -6 -50 -47h44l-15 -81h-88z" />
    <glyph glyph-name="pi" unicode="&#x3c0;" 
d="M170 0h-85l10.5 35.5t23 92.5t29 140t23 167t10.5 184h-108v81h504v-81h-79v-470q0 -91 13 -149h-81q-17 30 -17 143v476h-147q0 -137 -24 -292t-48 -241z" />
    <glyph glyph-name="Wgrave" unicode="&#x1e80;" 
d="M84 0l44 700h85l-47 -578h2l172 408h53l29 -408h2l155 578h85l-202 -700h-97l-26 370h-2l-155 -370h-98zM361 765l-107 121h100l78 -121h-71z" />
    <glyph glyph-name="wgrave" unicode="&#x1e81;" 
d="M124 0l6 530h79l-15 -399h2l111 229h74l29 -229h2l135 399h82l-190 -530h-74l-35 263h-2l-127 -263h-77zM350 595l-107 121h100l78 -121h-71z" />
    <glyph glyph-name="Wacute" unicode="&#x1e82;" 
d="M84 0l44 700h85l-47 -578h2l172 408h53l29 -408h2l155 578h85l-202 -700h-97l-26 370h-2l-155 -370h-98zM379 765l78 121h100l-107 -121h-71z" />
    <glyph glyph-name="wacute" unicode="&#x1e83;" 
d="M124 0l6 530h79l-15 -399h2l111 229h74l29 -229h2l135 399h82l-190 -530h-74l-35 263h-2l-127 -263h-77zM348 595l78 121h100l-107 -121h-71z" />
    <glyph glyph-name="Wdieresis" unicode="&#x1e84;" 
d="M84 0l44 700h85l-47 -578h2l172 408h53l29 -408h2l155 578h85l-202 -700h-97l-26 370h-2l-155 -370h-98zM264 765l16 91h91l-17 -91h-90zM456 765l16 91h91l-16 -91h-91z" />
    <glyph glyph-name="wdieresis" unicode="&#x1e85;" 
d="M124 0l6 530h79l-15 -399h2l111 229h74l29 -229h2l135 399h82l-190 -530h-74l-35 263h-2l-127 -263h-77zM248 612l15 90h91l-16 -90h-90zM440 612l15 90h91l-15 -90h-91z" />
    <glyph glyph-name="Ygrave" unicode="&#x1ef2;" 
d="M219 0l52 295l-159 405h91l121 -325h2l233 325h101l-301 -405l-52 -295h-88zM344 765l-107 121h100l78 -121h-71z" />
    <glyph glyph-name="ygrave" unicode="&#x1ef3;" 
d="M106 -225l148 267l-118 488h84l90 -387h2l205 387h94l-418 -755h-87zM340 595l-107 121h100l78 -121h-71z" />
    <glyph glyph-name="endash" unicode="&#x2013;" 
d="M99 306l13 72h439l-13 -72h-439z" />
    <glyph glyph-name="emdash" unicode="&#x2014;" 
d="M54 306l13 72h529l-13 -72h-529z" />
    <glyph glyph-name="quoteleft" unicode="&#x2018;" 
d="M396 700l-10 -55q-49 -9 -59 -61h49l-20 -115h-122l20 110q19 111 142 121z" />
    <glyph glyph-name="quoteright" unicode="&#x2019;" 
d="M244 469l10 55q49 9 59 61h-49l20 115h122l-20 -110q-19 -111 -142 -121z" />
    <glyph glyph-name="quotesinglbase" unicode="&#x201a;" 
d="M244 -116l10 55q49 9 59 61h-49l20 115h122l-20 -110q-19 -111 -142 -121z" />
    <glyph glyph-name="quotedblleft" unicode="&#x201c;" 
d="M305 700l-10 -55q-49 -9 -59 -61h49l-20 -115h-122l20 110q19 111 142 121zM486 700l-10 -55q-49 -9 -59 -61h49l-20 -115h-122l20 110q19 111 142 121z" />
    <glyph glyph-name="quotedblright" unicode="&#x201d;" 
d="M334 469l10 55q49 9 59 61h-49l20 115h122l-20 -110q-19 -111 -142 -121zM153 469l10 55q49 9 59 61h-49l20 115h122l-20 -110q-19 -111 -142 -121z" />
    <glyph glyph-name="quotedblbase" unicode="&#x201e;" 
d="M335 -116l10 55q49 9 59 61h-49l20 115h122l-20 -110q-19 -111 -142 -121zM153 -116l10 55q49 9 59 61h-49l20 115h122l-20 -110q-19 -111 -142 -121z" />
    <glyph glyph-name="dagger" unicode="&#x2020;" 
d="M184 -225l116 654h-219l12 72h219l41 229h77l-41 -229h219l-12 -72h-219l-116 -654h-77z" />
    <glyph glyph-name="daggerdbl" unicode="&#x2021;" 
d="M193 -225l40 225h-219l12 68h219l65 365h-219l11 68h219l41 229h77l-41 -229h219l-11 -68h-219l-65 -365h219l-12 -68h-219l-40 -225h-77z" />
    <glyph glyph-name="bullet" unicode="&#x2022;" 
d="M324 267q-40 0 -64.5 26t-24.5 66t24.5 66t64.5 26q41 0 66 -26t25 -66t-25 -66t-66 -26z" />
    <glyph glyph-name="ellipsis" unicode="&#x2026;" 
d="M28 0l20 115h116l-21 -115h-115zM230 0l20 115h116l-21 -115h-115zM426 0l21 115h115l-20 -115h-116z" />
    <glyph glyph-name="perthousand" unicode="&#x2030;" 
d="M115 11q0 110 42.5 171.5t106.5 61.5q56 0 87 -58q41 58 104 58q52 0 81.5 -47.5t29.5 -123.5q0 -110 -42.5 -171.5t-106.5 -61.5q-56 0 -87 58q-41 -58 -104 -58q-52 0 -81.5 47.5t-29.5 123.5zM70 630q0 110 42.5 171.5t106.5 61.5q52 0 81.5 -47.5t29.5 -123.5
q0 -110 -42.5 -171.5t-106.5 -61.5q-52 0 -81.5 47.5t-29.5 123.5zM90 232l-34 60l372 216l34 -60zM138 636q0 -55 9 -84.5t35 -29.5q38 0 59 43.5t21 123.5q0 111 -44 111q-38 0 -59 -43t-21 -121zM183 17q0 -55 9 -84.5t35 -29.5q38 0 59 43.5t21 123.5q0 111 -44 111
q-38 0 -59 -43t-21 -121zM374 17q0 -55 9 -84.5t35 -29.5q38 0 59 43.5t21 123.5q0 111 -44 111q-38 0 -59 -43t-21 -121z" />
    <glyph glyph-name="guilsinglleft" unicode="&#x2039;" 
d="M289 87l-78 211l138 163h90l-149 -173l75 -201h-76z" />
    <glyph glyph-name="guilsinglright" unicode="&#x203a;" 
d="M209 87l152 178l-75 196h77l78 -206l-142 -168h-90z" />
    <glyph glyph-name="fraction" unicode="&#x2044;" 
d="M105 320l9 60h430l-9 -60h-430z" />
    <glyph glyph-name="zerosuperior" unicode="&#x2070;" 
d="M299 468q-61 0 -100 40.5t-39 124.5q0 109 52.5 190.5t139.5 81.5q59 0 98.5 -41.5t39.5 -122.5q0 -112 -51.5 -192.5t-139.5 -80.5zM305 532q36 0 63 31t40 72.5t15 87.5l-194 -125q14 -66 76 -66zM344 843q-50 0 -81.5 -56.5t-36.5 -125.5l192 123q-17 59 -74 59z" />
    <glyph glyph-name="foursuperior" unicode="&#x2074;" 
d="M159 563l11 61l216 276h101l-49 -278h52l-11 -59h-50l-14 -90h-66l15 90h-205zM234 622h139l43 231h-2z" />
    <glyph glyph-name="fivesuperior" unicode="&#x2075;" 
d="M167 597l62 17q17 -85 91 -85q45 0 72.5 29.5t27.5 73.5q0 36 -22 57.5t-59 21.5q-58 0 -93 -39l-49 32l62 196h220l-12 -61h-168l-34 -105q1 0 1 -0.5t1 -0.5q37 28 83 28q57 0 95 -34.5t38 -92.5q0 -74 -45.5 -120t-118.5 -46q-61 0 -103 35.5t-49 93.5z" />
    <glyph glyph-name="sixsuperior" unicode="&#x2076;" 
d="M317 528q40 0 68.5 28t28.5 70q0 32 -21 56.5t-62 24.5q-42 0 -70 -28t-28 -66t23.5 -61.5t60.5 -23.5zM234 713q1 -1 2 -1q4 6 14.5 15t36 19.5t54.5 10.5q61 0 98 -37t37 -93q0 -70 -45.5 -114.5t-114.5 -44.5q-67 0 -110.5 45.5t-43.5 124.5q0 113 56.5 190t140.5 77
q63 0 95 -38t34 -89l-59 -7q-9 76 -73 76q-44 0 -77 -36t-45 -98z" />
    <glyph glyph-name="sevensuperior" unicode="&#x2077;" 
d="M161 473l248 364v2h-215l11 61h284l-11 -66l-241 -361h-76z" />
    <glyph glyph-name="eightsuperior" unicode="&#x2078;" 
d="M345 730q33 0 53 17t20 46q0 57 -64 57q-33 0 -53 -18t-20 -46q0 -25 16.5 -40.5t47.5 -15.5zM314 528q40 0 65 22.5t25 59.5q0 29 -22 48t-58 19q-39 0 -65.5 -23t-26.5 -58q0 -32 21 -50t61 -18zM307 468q-59 0 -98 32t-39 86q0 49 29 82t69 42v2q-47 27 -47 78
q0 47 37.5 81t99.5 34q59 0 90 -31t31 -76q0 -70 -72 -95v-2q26 -12 43 -38t17 -60q0 -61 -44 -98t-116 -37z" />
    <glyph glyph-name="ninesuperior" unicode="&#x2079;" 
d="M168 584l62 13q9 -70 73 -70q42 0 71 37t39 100h-2q-11 -16 -37.5 -30.5t-66.5 -14.5q-50 0 -87.5 34t-37.5 97q0 67 45.5 111t110.5 44q64 0 104 -46.5t40 -126.5q0 -120 -50 -192t-131 -72q-58 0 -93.5 30.5t-39.5 85.5zM318 675q44 0 69.5 25t25.5 62q0 38 -21.5 61.5
t-56.5 23.5q-40 0 -65.5 -28.5t-25.5 -66.5q0 -32 21.5 -54.5t52.5 -22.5z" />
    <glyph glyph-name="plussuperior" unicode="&#x207a;" 
d="M261 517l27 156h-136l10 57h136l24 137h63l-24 -137h136l-10 -57h-136l-27 -156h-63z" />
    <glyph glyph-name="minussuperior" unicode="&#x207b;" 
d="M467 673h-295l10 57h295z" />
    <glyph glyph-name="zeroinferior" unicode="&#x2080;" 
d="M299 -205q-61 0 -100 40.5t-39 124.5q0 109 52.5 190.5t139.5 81.5q59 0 98.5 -41.5t39.5 -122.5q0 -112 -51.5 -192.5t-139.5 -80.5zM305 -141q52 0 83.5 59.5t34.5 131.5l-194 -125q14 -66 76 -66zM344 170q-50 0 -81.5 -56.5t-36.5 -125.5l192 123q-17 59 -74 59z" />
    <glyph glyph-name="oneinferior" unicode="&#x2081;" 
d="M161 -200l11 66h114l51 282l-103 -54l14 76l108 57h59l-65 -361h110l-11 -66h-288z" />
    <glyph glyph-name="twoinferior" unicode="&#x2082;" 
d="M157 -200l9 49q10 65 39 98t101 62q70 28 96 50t26 54q0 27 -19.5 43t-50.5 16q-74 0 -94 -84l-62 15q10 60 53 94.5t101 34.5q63 0 100 -33.5t37 -84.5q0 -57 -38.5 -89.5t-112.5 -62.5q-58 -24 -78 -43.5t-25 -52.5h212l-12 -66h-282z" />
    <glyph glyph-name="threeinferior" unicode="&#x2083;" 
d="M166 -50l63 9q5 -105 92 -105q41 0 63 22t22 60q0 62 -76 62h-24l10 54h25q36 0 57.5 17.5t21.5 52.5q0 23 -17 37.5t-46 14.5q-63 0 -82 -66l-57 17q10 45 47 76t93 31q55 0 90 -29t35 -72q1 -37 -20 -64.5t-54 -39.5v-2q24 -8 42 -32.5t18 -58.5q0 -63 -38.5 -101
t-110.5 -38q-73 0 -112.5 41.5t-41.5 113.5z" />
    <glyph glyph-name="fourinferior" unicode="&#x2084;" 
d="M159 -110l11 61l216 276h101l-49 -278h52l-11 -59h-50l-14 -90h-66l15 90h-205zM234 -51h139l43 231h-2z" />
    <glyph glyph-name="fiveinferior" unicode="&#x2085;" 
d="M167 -76l62 17q17 -85 91 -85q45 0 72.5 29.5t27.5 73.5q0 36 -22 57.5t-59 21.5q-58 0 -93 -39l-49 32l62 196h220l-12 -61h-168l-34 -105q1 0 1 -0.5t1 -0.5q37 28 83 28q57 0 95 -34.5t38 -92.5q0 -75 -45.5 -120.5t-118.5 -45.5q-61 0 -103 35.5t-49 93.5z" />
    <glyph glyph-name="sixinferior" unicode="&#x2086;" 
d="M317 -146q40 0 68.5 28t28.5 70q0 32 -21 56.5t-62 24.5q-42 0 -70 -28t-28 -66t23.5 -61.5t60.5 -23.5zM234 39q1 -1 2 -1q4 6 14.5 15t36 19.5t54.5 10.5q61 0 98 -37t37 -93q0 -70 -45.5 -114.5t-114.5 -44.5q-67 0 -110.5 45.5t-43.5 124.5q0 113 56.5 190t140.5 77
q63 0 95 -38t34 -89l-59 -7q-9 76 -73 76q-44 0 -77 -36t-45 -98z" />
    <glyph glyph-name="seveninferior" unicode="&#x2087;" 
d="M161 -200l248 364v2h-215l11 61h284l-11 -66l-241 -361h-76z" />
    <glyph glyph-name="eightinferior" unicode="&#x2088;" 
d="M345 57q33 0 53 17t20 46q0 57 -64 57q-33 0 -53 -18t-20 -46q0 -25 16.5 -40.5t47.5 -15.5zM314 -145q40 0 65 22.5t25 59.5q0 29 -22 48t-58 19q-39 0 -65.5 -23t-26.5 -58q0 -32 21 -50t61 -18zM307 -205q-59 0 -98 32t-39 86q0 49 29 82t69 42v2q-47 27 -47 78
q0 47 37.5 81t99.5 34q59 0 90 -31t31 -76q0 -70 -72 -95v-2q26 -12 43 -38t17 -60q0 -61 -44 -98t-116 -37z" />
    <glyph glyph-name="nineinferior" unicode="&#x2089;" 
d="M168 -89l62 13q9 -70 73 -70q42 0 71 37t39 100h-2q-11 -16 -37.5 -30.5t-66.5 -14.5q-50 0 -87.5 34t-37.5 97q0 67 45.5 111t110.5 44q64 0 104 -46.5t40 -126.5q0 -120 -50 -192t-131 -72q-58 0 -93.5 30.5t-39.5 85.5zM318 2q44 0 69.5 25t25.5 62q0 38 -21.5 61.5
t-56.5 23.5q-40 0 -65.5 -28.5t-25.5 -66.5q0 -32 21.5 -54.5t52.5 -22.5z" />
    <glyph glyph-name="Euro" unicode="&#x20ac;" 
d="M194 389q-8 -56 -8 -87h220l-12 -67h-203q10 -78 46 -123.5t92 -45.5t93 51t54 132l89 -18q-21 -116 -82.5 -181t-162.5 -65q-91 0 -150 68t-70 182h-51l12 67h37q0 38 7 87h-29l12 67h31q33 120 105.5 189.5t161.5 69.5q95 0 153 -67.5t57 -177.5l-87 -5
q-2 76 -31.5 124t-94.5 48q-55 0 -101.5 -50t-71.5 -131h223l-12 -67h-227z" />
    <glyph glyph-name="trademark" unicode="&#x2122;" 
d="M141 361l50 286h-74l9 53h198l-9 -53h-68l-50 -286h-56zM294 361l59 339h74l31 -132h2l76 132h81l-59 -339h-56l46 263h-2l-78 -138h-40l-30 137h-2l-46 -262h-56z" />
    <glyph glyph-name="Omega" unicode="&#x2126;" 
d="M59 0v70h122q-54 37 -89.5 116.5t-35.5 174.5q0 172 76.5 263t192.5 91t192.5 -91t76.5 -263q0 -96 -35.5 -175t-90.5 -116h123v-70h-231v67q63 13 105 87t42 193q0 145 -51 217.5t-131 72.5q-79 0 -130.5 -73t-51.5 -217q0 -119 39.5 -193t97.5 -87v-67h-221z" />
    <glyph glyph-name="onethird" unicode="&#x2153;" 
d="M119 -38l63 9q5 -105 92 -105q41 0 63 22t22 60q0 62 -76 62h-24l10 54h25q36 0 57.5 17.5t21.5 52.5q0 23 -17 37.5t-46 14.5q-63 0 -82 -66l-57 17q10 45 47 76t93 31q55 0 90 -29t35 -72q1 -37 -20 -64.5t-54 -39.5v-2q24 -8 42 -32.5t18 -58.5q0 -63 -38.5 -101
t-110.5 -38q-73 0 -112.5 41.5t-41.5 113.5zM199 463l11 66h114l51 282l-103 -54l14 76l108 57h59l-65 -361h110l-11 -66h-288zM104 315l11 68h430l-11 -68h-430z" />
    <glyph glyph-name="twothirds" unicode="&#x2154;" 
d="M104 316l11 68h430l-11 -68h-430zM194 463l9 49q10 65 39 98t101 62q70 28 96 50t26 54q0 27 -19.5 43t-50.5 16q-74 0 -94 -84l-62 15q10 60 53 94.5t101 34.5q63 0 100 -33.5t37 -84.5q0 -57 -38.5 -89.5t-112.5 -62.5q-58 -24 -78 -43.5t-25 -52.5h212l-12 -66h-282z
M116 -38l63 9q5 -105 92 -105q41 0 63 22t22 60q0 62 -76 62h-24l10 54h25q36 0 57.5 17.5t21.5 52.5q0 23 -17 37.5t-46 14.5q-63 0 -82 -66l-57 17q10 45 47 76t93 31q55 0 90 -29t35 -72q1 -37 -20 -64.5t-54 -39.5v-2q24 -8 42 -32.5t18 -58.5q0 -63 -38.5 -101
t-110.5 -38q-73 0 -112.5 41.5t-41.5 113.5z" />
    <glyph glyph-name="onefifth" unicode="&#x2155;" 
d="M124 -64l62 17q17 -85 91 -85q45 0 72.5 29.5t27.5 73.5q0 36 -22 57.5t-59 21.5q-58 0 -93 -39l-49 32l62 196h220l-12 -61h-168l-34 -105l1 -1h1q37 28 83 28q57 0 95 -34.5t38 -92.5q0 -75 -46 -120.5t-118 -45.5q-61 0 -103 35.5t-49 93.5zM199 463l11 66h114l51 282
l-103 -54l14 76l108 57h59l-65 -361h110l-11 -66h-288zM104 315l11 68h430l-11 -68h-430z" />
    <glyph glyph-name="twofifths" unicode="&#x2156;" 
d="M124 -64l62 17q17 -85 91 -85q45 0 72.5 29.5t27.5 73.5q0 36 -22 57.5t-59 21.5q-58 0 -93 -39l-49 32l62 196h220l-12 -61h-168l-34 -105l1 -1h1q37 28 83 28q57 0 95 -34.5t38 -92.5q0 -75 -46 -120.5t-118 -45.5q-61 0 -103 35.5t-49 93.5zM104 316l11 68h430
l-11 -68h-430zM194 463l9 49q10 65 39 98t101 62q70 28 96 50t26 54q0 27 -19.5 43t-50.5 16q-74 0 -94 -84l-62 15q10 60 53 94.5t101 34.5q63 0 100 -33.5t37 -84.5q0 -57 -38.5 -89.5t-112.5 -62.5q-58 -24 -78 -43.5t-25 -52.5h212l-12 -66h-282z" />
    <glyph glyph-name="threefifths" unicode="&#x2157;" 
d="M127 -64l62 17q17 -85 91 -85q45 0 72.5 29.5t27.5 73.5q0 36 -22 57.5t-59 21.5q-58 0 -93 -39l-49 32l62 196h220l-12 -61h-168l-34 -105q1 0 1 -0.5t1 -0.5q37 28 83 28q57 0 95 -34.5t38 -92.5q0 -75 -45.5 -120.5t-118.5 -45.5q-61 0 -103 35.5t-49 93.5zM104 316
l11 68h430l-11 -68h-430zM204 613l63 9q5 -105 92 -105q41 0 63 22t22 60q0 62 -76 62h-24l10 54h25q36 0 57.5 17.5t21.5 52.5q0 23 -17 37.5t-46 14.5q-63 0 -82 -66l-57 17q10 45 47 76t93 31q55 0 90 -29t35 -72q1 -37 -20 -64.5t-54 -39.5v-2q24 -8 42 -32.5t18 -58.5
q0 -63 -38.5 -101t-110.5 -38q-73 0 -112.5 41.5t-41.5 113.5z" />
    <glyph glyph-name="fourfifths" unicode="&#x2158;" 
d="M104 316l11 68h430l-11 -68h-430zM150 553l11 61l216 276h101l-49 -278h52l-11 -59h-50l-14 -90h-66l15 90h-205zM225 612h139l43 231h-2zM118 -65l62 17q17 -85 91 -85q45 0 72.5 29.5t27.5 73.5q0 36 -22 57.5t-59 21.5q-58 0 -93 -39l-49 32l62 196h220l-12 -61h-168
l-34 -105h1l1 -1q37 28 83 28q57 0 95 -34.5t38 -92.5q0 -74 -46 -120t-118 -46q-61 0 -103 35.5t-49 93.5z" />
    <glyph glyph-name="onesixth" unicode="&#x2159;" 
d="M189 52q1 -1 2 -1q4 6 14.5 15t36 19.5t54.5 10.5q61 0 98 -37t37 -93q0 -70 -45.5 -114.5t-114.5 -44.5q-67 0 -110.5 45.5t-43.5 124.5q0 113 56.5 190t140.5 77q63 0 95 -38t34 -89l-59 -7q-9 76 -73 76q-44 0 -77 -36t-45 -98zM199 463l11 66h114l51 282l-103 -54
l14 76l108 57h59l-65 -361h110l-11 -66h-288zM104 315l11 68h430l-11 -68h-430zM272 -133q40 0 68.5 28t28.5 70q0 32 -21 56.5t-62 24.5q-42 0 -70 -28t-28 -66t23.5 -61.5t60.5 -23.5z" />
    <glyph glyph-name="fivesixths" unicode="&#x215a;" 
d="M104 316l11 68h430l-11 -68h-430zM189 587l62 17q17 -85 91 -85q45 0 72.5 29.5t27.5 73.5q0 36 -22 57.5t-59 21.5q-58 0 -93 -39l-49 32l62 196h220l-12 -61h-168l-34 -105q1 0 1 -0.5t1 -0.5q37 28 83 28q57 0 95 -34.5t38 -92.5q0 -74 -45.5 -120t-118.5 -46
q-61 0 -103 35.5t-49 93.5zM281 -133q40 0 68.5 28t28.5 70q0 32 -21 56.5t-62 24.5q-42 0 -70 -28t-28 -66t23.5 -61.5t60.5 -23.5zM198 52q1 -1 2 -1q4 6 14.5 15t36 19.5t54.5 10.5q61 0 98 -37t37 -93q0 -70 -45.5 -114.5t-114.5 -44.5q-67 0 -110.5 45.5t-43.5 124.5
q0 113 56.5 190t140.5 77q63 0 95 -38t34 -89l-59 -7q-9 76 -73 76q-44 0 -77 -36t-45 -98z" />
    <glyph glyph-name="oneeighth" unicode="&#x215b;" 
d="M261 -193q-59 0 -98 32t-39 86q0 49 29 82t69 42v2q-47 27 -47 78q0 47 37.5 81t99.5 34q59 0 90 -31t31 -76q0 -70 -72 -95v-2q26 -12 43 -38t17 -60q0 -61 -44 -98t-116 -37zM199 463l11 66h114l51 282l-103 -54l14 76l108 57h59l-65 -361h110l-11 -66h-288zM104 315
l11 68h430l-11 -68h-430zM268 -133q40 0 65 22.5t25 59.5q0 29 -22 48t-58 19q-39 0 -65.5 -23t-26.5 -58q0 -32 21 -50t61 -18zM299 69q33 0 53 17t20 46q0 57 -64 57q-33 0 -53 -18t-20 -46q0 -25 16.5 -40.5t47.5 -15.5z" />
    <glyph glyph-name="threeeighths" unicode="&#x215c;" 
d="M316 69q33 0 53 17t20 46q0 57 -64 57q-33 0 -53 -18t-20 -46q0 -25 16.5 -40.5t47.5 -15.5zM285 -133q40 0 65 22.5t25 59.5q0 29 -22 48t-58 19q-39 0 -65.5 -23t-26.5 -58q0 -32 21 -50t61 -18zM278 -193q-59 0 -98 32t-39 86q0 49 29 82t69 42v2q-47 27 -47 78
q0 47 37.5 81t99.5 34q59 0 90 -31t31 -76q0 -70 -72 -95v-2q26 -12 43 -38t17 -60q0 -61 -44 -98t-116 -37zM104 316l11 68h430l-11 -68h-430zM204 613l63 9q5 -105 92 -105q41 0 63 22t22 60q0 62 -76 62h-24l10 54h25q36 0 57.5 17.5t21.5 52.5q0 23 -17 37.5t-46 14.5
q-63 0 -82 -66l-57 17q10 45 47 76t93 31q55 0 90 -29t35 -72q1 -37 -20 -64.5t-54 -39.5v-2q24 -8 42 -32.5t18 -58.5q0 -63 -38.5 -101t-110.5 -38q-73 0 -112.5 41.5t-41.5 113.5z" />
    <glyph glyph-name="fiveeighths" unicode="&#x215d;" 
d="M104 316l11 68h430l-11 -68h-430zM306 69q33 0 53 17t20 46q0 57 -64 57q-33 0 -53 -18t-20 -46q0 -25 16.5 -40.5t47.5 -15.5zM275 -133q40 0 65 22.5t25 59.5q0 29 -22 48t-58 19q-39 0 -65.5 -23t-26.5 -58q0 -32 21 -50t61 -18zM268 -193q-59 0 -98 32t-39 86
q0 49 29 82t69 42v2q-47 27 -47 78q0 47 37.5 81t99.5 34q59 0 90 -31t31 -76q0 -70 -72 -95v-2q26 -12 43 -38t17 -60q0 -61 -44 -98t-116 -37zM189 587l62 17q17 -85 91 -85q45 0 72.5 29.5t27.5 73.5q0 36 -22 57.5t-59 21.5q-58 0 -93 -39l-49 32l62 196h220l-12 -61
h-168l-34 -105q1 0 1 -0.5t1 -0.5q37 28 83 28q57 0 95 -34.5t38 -92.5q0 -74 -45.5 -120t-118.5 -46q-61 0 -103 35.5t-49 93.5z" />
    <glyph glyph-name="seveneighths" unicode="&#x215e;" 
d="M104 316l11 68h430l-11 -68h-430zM306 69q33 0 53 17t20 46q0 57 -64 57q-33 0 -53 -18t-20 -46q0 -25 16.5 -40.5t47.5 -15.5zM275 -133q40 0 65 22.5t25 59.5q0 29 -22 48t-58 19q-39 0 -65.5 -23t-26.5 -58q0 -32 21 -50t61 -18zM268 -193q-59 0 -98 32t-39 86
q0 49 29 82t69 42v2q-47 27 -47 78q0 47 37.5 81t99.5 34q59 0 90 -31t31 -76q0 -70 -72 -95v-2q26 -12 43 -38t17 -60q0 -61 -44 -98t-116 -37zM231 463l248 364v2h-215l11 61h284l-11 -66l-241 -361h-76z" />
    <glyph glyph-name="leftwardsarrow" unicode="&#x2190;" 
d="M576 385v-77h-481l127 -207l-72 -44l-175 289l174 286l72 -43l-126 -204h481z" />
    <glyph glyph-name="upwardsarrow" unicode="&#x2191;" 
d="M363 529v-487h-77l1 487l-205 -129l-42 70l285 172l285 -172l-42 -70z" />
    <glyph glyph-name="rightwordsarrow" unicode="&#x2192;" 
d="M25 308v77h481l-126 204l72 43l174 -286l-175 -289l-72 44l127 207h-481z" />
    <glyph glyph-name="downwardsarrow" unicode="&#x2193;" 
d="M363 642v-487l205 129l42 -70l-285 -172l-285 172l42 70l205 -129l-1 487h77z" />
    <glyph glyph-name="leftrightarrow" unicode="&#x2194;" 
d="M518 308h-386l128 -203l-69 -43l-172 284l170 280l70 -43l-126 -199h384l-125 199l70 43l169 -280l-172 -284l-69 43z" />
    <glyph glyph-name="updownarrow" unicode="&#x2195;" 
d="M38 210l42 69l204 -129v387l-204 -129l-42 70l287 172l286 -172l-42 -70l-204 129v-387l204 129l42 -69l-286 -173z" />
    <glyph glyph-name="northwestarrow" unicode="&#x2196;" 
d="M589 141l-52 -53l-347 347l-55 -238l-74 18l78 324l324 79l17 -75l-237 -55z" />
    <glyph glyph-name="northeastarrow" unicode="&#x2197;" 
d="M63 88l-52 53l346 347l-237 55l17 75l324 -79l78 -324l-74 -18l-55 238z" />
    <glyph glyph-name="southeastarrow" unicode="&#x2198;" 
d="M11 547l52 53l347 -347l55 238l74 -18l-78 -324l-324 -79l-17 75l237 55z" />
    <glyph glyph-name="southwestarrow" unicode="&#x2199;" 
d="M537 600l52 -53l-346 -347l237 -55l-17 -75l-324 79l-78 324l74 18l55 -238z" />
    <glyph glyph-name="downwardsarrowwithtiprightwards" unicode="&#x21b3;" 
d="M24 307v393h83v-314h399l-125 203l72 43l173 -286l-176 -289l-72 43l127 207h-481z" />
    <glyph glyph-name="downwardsarrowwithtipleftwards" unicode="&#x21b5;" 
d="M576 700v-393h-481l127 -207l-72 -43l-176 289l173 286l72 -43l-125 -203h399v314h83z" />
    <glyph glyph-name="partialdiff" unicode="&#x2202;" 
d="M222 669l-38 55q1 1 12.5 9.5t25.5 16.5t32.5 17t42 15t46.5 6q77 0 128.5 -51.5t74 -136.5t22.5 -201q0 -188 -62 -301t-192 -113q-107 0 -169.5 65t-62.5 180q0 113 55 191t167 79q79 0 190 -50q-1 121 -40 195t-112 74q-16 0 -32.5 -4t-31.5 -11.5t-25 -13.5t-21 -14z
M314 58q163 3 176 320q-104 52 -181 52q-79 0 -115 -56.5t-36 -143.5q1 -75 40.5 -123.5t115.5 -48.5z" />
    <glyph glyph-name="Delta" unicode="&#x2206;" 
d="M30 0l250 700h89l250 -700h-589zM143 77h362l-181 523z" />
    <glyph glyph-name="product" unicode="&#x220f;" 
d="M185 -141v716h-125v75h529v-75h-122v-716h-78v716h-126v-716h-78z" />
    <glyph glyph-name="summation" unicode="&#x2211;" 
d="M83 -100v94l240 316l-230 296v94h474v-77h-385l240 -312l-255 -334h400v-77h-484z" />
    <glyph glyph-name="minus" unicode="&#x2212;" 
d="M67 344v70h516v-70h-516z" />
    <glyph glyph-name="radical" unicode="&#x221a;" 
d="M287 0l-119 345h-135v72h194l103 -307l203 590h83l-243 -700h-86z" />
    <glyph glyph-name="infinity" unicode="&#x221e;" 
d="M445 112q-38 0 -70.5 23.5t-49.5 59.5q-18 -36 -52 -59.5t-73 -23.5q-63 0 -104.5 54.5t-41.5 136.5q0 83 41 138t104 55q40 0 74.5 -26t51.5 -65q16 39 49.5 65t71.5 26q63 0 104 -55t41 -138q0 -82 -41.5 -136.5t-104.5 -54.5zM300 303q-39 118 -99 118q-29 0 -47 -22
t-23 -46t-5 -50t5 -49.5t23.5 -45t48.5 -21.5q60 0 97 116zM350 303q36 -116 92 -116q30 0 48.5 21.5t23.5 45t5 49.5q0 18 -3 36t-10.5 38t-23 32t-38.5 12q-57 0 -94 -118z" />
    <glyph glyph-name="integral" unicode="&#x222b;" 
d="M154 -240v74q75 1 102 27.5t27 97.5v575q0 116 48 163.5t164 47.5v-74q-81 -1 -106.5 -29.5t-25.5 -109.5v-561q0 -117 -47.5 -164t-161.5 -47z" />
    <glyph glyph-name="approxequal" unicode="&#x2248;" 
d="M132 408l-51 28q13 53 49.5 92.5t91.5 39.5q42 0 80.5 -22t71.5 -43.5t60 -21.5q19 0 33 7t24.5 25t13.5 25.5t11 31.5l52 -27q-15 -55 -47.5 -94t-86.5 -39q-42 0 -81.5 22t-72 43.5t-59.5 21.5q-62 0 -89 -89zM132 190l-51 28q13 53 49.5 92.5t91.5 39.5q42 0 80.5 -22
t71.5 -43.5t60 -21.5q19 0 33 7t24.5 25t13.5 25.5t11 31.5l52 -28q-14 -55 -47 -93.5t-87 -38.5q-42 0 -81.5 22t-72 43.5t-59.5 21.5q-61 0 -89 -89z" />
    <glyph glyph-name="notequal" unicode="&#x2260;" 
d="M171 169l49 86h-127v70h166l66 115h-232v70h271l65 113l49 -28l-49 -85h127v-70h-166l-67 -115h233v-70h-272l-65 -114z" />
    <glyph glyph-name="lessequal" unicode="&#x2264;" 
d="M108 377v70l391 233l36 -60l-347 -208l347 -209l-37 -61zM108 0v70h433v-70h-433z" />
    <glyph glyph-name="greaterequal" unicode="&#x2265;" 
d="M541 0h-433v70h433v-70zM541 377l-390 -235l-37 61l347 209l-348 208l37 60l391 -233v-70z" />
    <glyph glyph-name="lozenge" unicode="&#x25ca;" 
d="M268 0l-203 356l204 344h111l205 -344l-204 -356h-113zM325 47l178 309l-178 295l-178 -295z" />
    <glyph glyph-name="commaaccent" unicode="&#xf6c3;" 
d="M259 -229l5 36q28 4 41 16t17 34h-50l16 92h102l-14 -78q-8 -48 -35.5 -72.5t-81.5 -27.5z" />
    <glyph glyph-name="apple" unicode="&#xf8ff;" 
d="M32 0v423q0 117 86 204.5t206 87.5q121 0 207.5 -87.5t86.5 -204.5v-423h-28l-65 65l-68 -65l-63 65l-71 -65l-69 65l-63 -65l-67 65l-66 -65h-26zM382 377q0 -29 20.5 -49.5t49.5 -20.5t50.5 21t21.5 49q0 30 -21.5 51t-50.5 21t-49.5 -21t-20.5 -51zM127 377
q0 -29 21 -49.5t50 -20.5q30 0 50.5 20.5t20.5 49.5q0 30 -20.5 51t-50.5 21q-29 0 -50 -21t-21 -51z" />
    <glyph glyph-name="grave.cap" 
d="M343 765l-107 121h100l78 -121h-71z" />
    <glyph glyph-name="acute.cap" 
d="M236 765l78 121h100l-107 -121h-71z" />
    <glyph glyph-name="circumflex.cap" 
d="M245 748l-41 45l78 78h101l62 -86l-51 -37l-63 87z" />
    <glyph glyph-name="caron.cap" 
d="M266 765l-62 87l50 36l63 -87l87 87l41 -45l-79 -78h-100z" />
    <glyph glyph-name="tilde.cap" 
d="M221 765h-46q33 94 103 94q28 0 60 -19t50 -19q27 0 40 33h46q-33 -94 -103 -94q-27 0 -60.5 19t-49.5 19q-27 0 -40 -33z" />
    <glyph glyph-name="dieresis.cap" 
d="M175 765l16 91h91l-17 -91h-90zM367 765l16 91h91l-16 -91h-91z" />
    <glyph glyph-name="macron.cap" 
d="M176 765l10 57h288l-10 -57h-288z" />
    <glyph glyph-name="breve.cap" 
d="M202 872h45q0 -56 69 -56q68 0 86 56h48q-10 -56 -46.5 -87.5t-90.5 -31.5q-48 0 -79.5 24.5t-33.5 67.5q0 17 2 27z" />
    <glyph glyph-name="ring.cap" 
d="M316 685q-39 0 -64.5 25.5t-25.5 62.5q0 49 30.5 82t77.5 33q39 0 64.5 -25.5t25.5 -62.5q0 -50 -30 -82.5t-78 -32.5zM318 729q22 0 38.5 19t16.5 51q0 22 -12 33.5t-29 11.5q-23 0 -39 -18.5t-16 -51.5q0 -21 12.5 -33t28.5 -12z" />
    <glyph glyph-name="hungarumlaut.cap" 
d="M174 765l75 115h91l-104 -115h-62zM310 765l75 115h91l-104 -115h-62z" />
    <glyph glyph-name="dotaccent.cap" 
d="M268 765l16 96h97l-17 -96h-96z" />
    <glyph glyph-name="caron.alt" 
d="M264 579l44 151h78l-67 -151h-55z" />
    <glyph glyph-name="parenleft.cap" 
d="M337 -96l-60 -35q-118 211 -118 410q0 162 74.5 305.5t213.5 252.5l44 -50q-257 -203 -258 -495q-1 -200 104 -388z" />
    <glyph glyph-name="parenright.cap" 
d="M202 -131l-42 53q255 205 256 492q1 198 -103 388l59 35q117 -209 118 -415q0 -162 -74.5 -305t-213.5 -248z" />
    <glyph glyph-name="bracketleft.cap" 
d="M130 -109l163 921h226l-10 -60h-160l-142 -802h160l-11 -59h-226z" />
    <glyph glyph-name="bracketright.cap" 
d="M519 812l-163 -921h-226l10 59h160l142 802h-160l11 60h226z" />
    <glyph glyph-name="braceleft.cap" 
d="M175 21l44 246q5 32 -4 45t-38 13h-29l16 89h28q29 0 43.5 14.5t20.5 46.5l38 216q11 67 44.5 93t94.5 26h68l-11 -60h-51q-42 0 -58.5 -16t-24.5 -60l-35 -202q-5 -28 -17 -49.5t-26 -31.5t-23.5 -15t-15.5 -6q6 -2 12.5 -7t17.5 -16.5t15.5 -31.5t0.5 -45l-46 -259
q-7 -38 4.5 -55t51.5 -17h52l-10 -60h-54q-70 0 -95.5 33t-12.5 109z" />
    <glyph glyph-name="braceright.cap" 
d="M143 -121l10 60h52q42 0 58.5 16.5t24.5 59.5l45 252q13 78 80 102q-8 3 -19 11t-21 32.5t-4 56.5l38 209q6 39 -5 55.5t-51 16.5h-52l10 60h54q69 0 94.5 -32.5t12.5 -108.5l-35 -197q-5 -32 4 -45t38 -13h29l-16 -89h-28q-29 0 -43.5 -14.5t-20.5 -46.5l-48 -266
q-11 -67 -45 -93t-94 -26h-68z" />
    <glyph glyph-name="published" 
d="M288 364h47q81 0 81 63q0 65 -82 65h-46v-128zM329 46q-108 0 -182.5 89t-74.5 219t74.5 218.5t182.5 88.5q104 0 176 -89t72 -218q0 -130 -72 -219t-176 -89zM329 94q84 0 141.5 74.5t57.5 185.5q0 110 -57.5 184t-141.5 74q-88 0 -148 -74t-60 -184q0 -111 60 -185.5
t148 -74.5zM288 317v-150h-49v370h100q127 0 127 -110q0 -55 -33.5 -82.5t-93.5 -27.5h-51z" />
    <glyph glyph-name="zero.numr" 
d="M299 268q-61 0 -100 40.5t-39 124.5q0 109 52.5 190.5t139.5 81.5q59 0 98.5 -41.5t39.5 -122.5q0 -112 -51.5 -192.5t-139.5 -80.5zM305 332q36 0 63 31t40 72.5t15 87.5l-194 -125q14 -66 76 -66zM344 643q-50 0 -81.5 -56.5t-36.5 -125.5l192 123q-17 59 -74 59z" />
    <glyph glyph-name="one.numr" 
d="M161 273l11 66h114l51 282l-103 -54l14 76l108 57h59l-65 -361h110l-11 -66h-288z" />
    <glyph glyph-name="two.numr" 
d="M157 273l9 49q10 65 39 98t101 62q70 28 96 50t26 54q0 27 -19.5 43t-50.5 16q-74 0 -94 -84l-62 15q10 60 53 94.5t101 34.5q63 0 100 -33.5t37 -84.5q0 -57 -38.5 -89.5t-112.5 -62.5q-58 -24 -78 -43.5t-25 -52.5h212l-12 -66h-282z" />
    <glyph glyph-name="three.numr" 
d="M166 423l63 9q5 -105 92 -105q41 0 63 22t22 60q0 62 -76 62h-24l10 54h25q36 0 57.5 17.5t21.5 52.5q0 23 -17 37.5t-46 14.5q-63 0 -82 -66l-57 17q10 45 47 76t93 31q55 0 90 -29t35 -72q1 -37 -20 -64.5t-54 -39.5v-2q24 -8 42 -32.5t18 -58.5q0 -63 -38.5 -101
t-110.5 -38q-73 0 -112.5 41.5t-41.5 113.5z" />
    <glyph glyph-name="four.numr" 
d="M159 363l11 61l216 276h101l-49 -278h52l-11 -59h-50l-14 -90h-66l15 90h-205zM234 422h139l43 231h-2z" />
    <glyph glyph-name="five.numr" 
d="M167 397l62 17q17 -85 91 -85q45 0 72.5 29.5t27.5 73.5q0 36 -22 57.5t-59 21.5q-58 0 -93 -39l-49 32l62 196h220l-12 -61h-168l-34 -105q1 0 1 -0.5t1 -0.5q37 28 83 28q57 0 95 -34.5t38 -92.5q0 -74 -45.5 -120t-118.5 -46q-61 0 -103 35.5t-49 93.5z" />
    <glyph glyph-name="six.numr" 
d="M317 328q40 0 68.5 28t28.5 70q0 32 -21 56.5t-62 24.5q-42 0 -70 -28t-28 -66t23.5 -61.5t60.5 -23.5zM234 513q1 -1 2 -1q4 6 14.5 15t36 19.5t54.5 10.5q61 0 98 -37t37 -93q0 -70 -45.5 -114.5t-114.5 -44.5q-67 0 -110.5 45.5t-43.5 124.5q0 113 56.5 190t140.5 77
q63 0 95 -38t34 -89l-59 -7q-9 76 -73 76q-44 0 -77 -36t-45 -98z" />
    <glyph glyph-name="seven.numr" 
d="M160 273l248 364v2h-215l11 61h284l-11 -66l-241 -361h-76z" />
    <glyph glyph-name="eight.numr" 
d="M345 530q33 0 53 17t20 46q0 57 -64 57q-33 0 -53 -18t-20 -46q0 -25 16.5 -40.5t47.5 -15.5zM314 328q40 0 65 22.5t25 59.5q0 29 -22 48t-58 19q-39 0 -65.5 -23t-26.5 -58q0 -32 21 -50t61 -18zM307 268q-59 0 -98 32t-39 86q0 49 29 82t69 42v2q-47 27 -47 78
q0 47 37.5 81t99.5 34q59 0 90 -31t31 -76q0 -70 -72 -95v-2q26 -12 43 -38t17 -60q0 -61 -44 -98t-116 -37z" />
    <glyph glyph-name="nine.numr" 
d="M168 384l62 13q9 -70 73 -70q42 0 71 37t39 100h-2q-11 -16 -37.5 -30.5t-66.5 -14.5q-50 0 -87.5 34t-37.5 97q0 67 45.5 111t110.5 44q64 0 104 -46.5t40 -126.5q0 -120 -50 -192t-131 -72q-58 0 -93.5 30.5t-39.5 85.5zM318 475q44 0 69.5 25t25.5 62q0 38 -21.5 61.5
t-56.5 23.5q-40 0 -65.5 -28.5t-25.5 -66.5q0 -32 21.5 -54.5t52.5 -22.5z" />
    <glyph glyph-name="zero.dnom" 
d="M299 -5q-61 0 -100 40.5t-39 124.5q0 109 52.5 190.5t139.5 81.5q59 0 98.5 -41.5t39.5 -122.5q0 -112 -51.5 -192.5t-139.5 -80.5zM305 59q36 0 63 31t40 72.5t15 87.5l-194 -125q14 -66 76 -66zM344 370q-50 0 -81.5 -56.5t-36.5 -125.5l192 123q-17 59 -74 59z" />
    <glyph glyph-name="one.dnom" 
d="M161 0l11 66h114l51 282l-103 -54l14 76l108 57h59l-65 -361h110l-11 -66h-288z" />
    <glyph glyph-name="two.dnom" 
d="M157 0l9 49q10 65 39 98t101 62q70 28 96 50t26 54q0 27 -19.5 43t-50.5 16q-74 0 -94 -84l-62 15q10 60 53 94.5t101 34.5q63 0 100 -33.5t37 -84.5q0 -57 -38.5 -89.5t-112.5 -62.5q-58 -24 -78 -43.5t-25 -52.5h212l-12 -66h-282z" />
    <glyph glyph-name="three.dnom" 
d="M166 150l63 9q5 -105 92 -105q41 0 63 22t22 60q0 62 -76 62h-24l10 54h25q36 0 57.5 17.5t21.5 52.5q0 23 -17 37.5t-46 14.5q-63 0 -82 -66l-57 17q10 45 47 76t93 31q55 0 90 -29t35 -72q1 -37 -20 -64.5t-54 -39.5v-2q24 -8 42 -32.5t18 -58.5q0 -63 -38.5 -101
t-110.5 -38q-73 0 -112.5 41.5t-41.5 113.5z" />
    <glyph glyph-name="four.dnom" 
d="M159 90l11 61l216 276h101l-49 -278h52l-11 -59h-50l-14 -90h-66l15 90h-205zM234 149h139l43 231h-2z" />
    <glyph glyph-name="five.dnom" 
d="M167 124l62 17q17 -85 91 -85q45 0 72.5 29.5t27.5 73.5q0 36 -22 57.5t-59 21.5q-58 0 -93 -39l-49 32l62 196h220l-12 -61h-168l-34 -105q1 0 1 -0.5t1 -0.5q37 28 83 28q57 0 95 -34.5t38 -92.5q0 -75 -45.5 -120.5t-118.5 -45.5q-61 0 -103 35.5t-49 93.5z" />
    <glyph glyph-name="six.dnom" 
d="M317 55q40 0 68.5 28t28.5 70q0 32 -21 56.5t-62 24.5q-42 0 -70 -28t-28 -66t23.5 -61.5t60.5 -23.5zM234 240q1 -1 2 -1q4 6 14.5 15t36 19.5t54.5 10.5q61 0 98 -37t37 -93q0 -70 -45.5 -114.5t-114.5 -44.5q-67 0 -110.5 45.5t-43.5 124.5q0 113 56.5 190t140.5 77
q63 0 95 -38t34 -89l-59 -7q-9 76 -73 76q-44 0 -77 -36t-45 -98z" />
    <glyph glyph-name="seven.dnom" 
d="M161 0l248 364v2h-215l11 61h284l-11 -66l-241 -361h-76z" />
    <glyph glyph-name="eight.dnom" 
d="M345 257q33 0 53 17t20 46q0 57 -64 57q-33 0 -53 -18t-20 -46q0 -25 16.5 -40.5t47.5 -15.5zM314 55q40 0 65 22.5t25 59.5q0 29 -22 48t-58 19q-39 0 -65.5 -23t-26.5 -58q0 -32 21 -50t61 -18zM307 -5q-59 0 -98 32t-39 86q0 49 29 82t69 42v2q-47 27 -47 78
q0 47 37.5 81t99.5 34q59 0 90 -31t31 -76q0 -70 -72 -95v-2q26 -12 43 -38t17 -60q0 -61 -44 -98t-116 -37z" />
    <glyph glyph-name="nine.dnom" 
d="M168 111l62 13q9 -70 73 -70q42 0 71 37t39 100h-2q-11 -16 -37.5 -30.5t-66.5 -14.5q-50 0 -87.5 34t-37.5 97q0 67 45.5 111t110.5 44q64 0 104 -46.5t40 -126.5q0 -120 -50 -192t-131 -72q-58 0 -93.5 30.5t-39.5 85.5zM318 202q44 0 69.5 25t25.5 62q0 38 -21.5 61.5
t-56.5 23.5q-40 0 -65.5 -28.5t-25.5 -66.5q0 -32 21.5 -54.5t52.5 -22.5z" />
    <glyph glyph-name="plusinferior" 
d="M261 -156l27 156h-136l10 57h136l24 137h63l-24 -137h136l-10 -57h-136l-27 -156h-63z" />
    <glyph glyph-name="minusinferior" 
d="M467 0h-295l10 57h295z" />
  </font>
</defs>
</svg>
